<svg width="420" height="148" version="1.1" xmlns="http://www.w3.org/2000/svg" desc="Created with imagetracer.js version 1.2.6" ><path fill="rgb(0,0,0)" stroke="rgb(0,0,0)" stroke-width="1" opacity="0" d="M 0 0 L 420 0 L 420 148 L 0 148 L 0 0 Z M 130 10 L 121 14 L 96 30 Q 89 24 79 21 Q 65 20 59 27 Q 52 33 49 44 L 49 81 L 48 82 L 48 99 L 49 100 L 49 117 L 48 118 Q 47 122 50 123 Q 54 117 62 115 L 62 87 L 63 86 L 62 82 L 62 46 L 64 42 L 71 36 L 79 36 L 96 47 L 133 24 L 141 25 Q 146 28 148 36 L 148 65 Q 157 70 160 81 L 161 81 L 161 35 L 160 30 L 154 19 Q 148 8 130 10 Z M 219 28 L 219 35 L 227 35 L 227 28 L 219 28 Z M 316 28 L 316 35 L 324 35 L 324 28 L 316 28 Z M 233 29 L 233 66 L 234 66 L 241 66 L 241 30 L 241 29 L 233 29 Z M 247 29 L 247 66 L 248 66 L 254 66 L 254 30 L 254 29 L 247 29 Z M 179 38 L 179 66 L 180 66 L 186 66 L 186 47 L 188 45 Q 192 44 192 46 L 192 66 L 200 66 L 200 45 L 205 46 L 205 66 L 213 66 L 213 44 L 212 42 Q 210 36 201 38 Q 199 42 197 38 L 189 38 L 188 39 L 179 38 Z M 219 38 L 219 66 L 220 66 L 227 66 L 227 39 L 227 38 L 219 38 Z M 267 38 L 264 40 L 260 46 L 260 60 L 261 62 L 269 67 Q 277 68 282 65 Q 283 60 281 59 L 271 60 L 267 56 L 282 55 L 282 45 L 281 43 Q 278 36 267 38 Z M 288 38 L 288 66 L 295 66 L 295 46 L 302 45 L 303 50 L 303 66 L 310 66 L 310 44 L 308 39 L 306 38 L 298 38 L 297 39 L 288 38 Z M 316 38 L 316 66 L 317 66 L 324 66 L 324 39 L 324 38 L 316 38 Z M 330 38 L 330 59 L 332 65 L 337 67 L 344 66 L 346 66 L 353 66 L 353 66 L 353 38 L 345 38 L 345 58 L 342 60 L 338 59 L 338 38 L 330 38 Z M 359 38 L 359 66 L 366 66 L 366 47 Q 367 44 371 45 L 372 47 L 372 66 L 380 66 L 380 45 Q 384 44 385 47 L 385 66 L 393 66 L 393 46 L 392 42 L 389 38 Q 382 37 379 39 Q 377 41 376 38 Q 369 36 368 39 L 359 38 Z M 67 42 L 67 80 L 66 81 Q 65 86 67 88 L 67 108 L 68 109 L 66 113 L 66 125 L 67 126 L 66 147 Q 74 146 79 140 L 80 140 L 80 109 L 132 77 L 141 78 Q 146 81 148 89 L 148 134 L 147 135 L 147 145 L 149 146 Q 159 139 161 125 L 161 88 Q 159 78 154 72 L 148 66 L 136 62 L 129 63 L 122 66 L 98 82 L 86 88 L 82 92 L 80 92 L 80 50 L 67 42 Z M 179 74 L 179 106 L 180 108 L 187 112 L 386 112 L 389 111 L 393 106 L 393 75 L 393 74 L 179 74 Z " /><path fill="rgb(0,0,0)" stroke="rgb(0,0,0)" stroke-width="1" opacity="0" d="M 269.5 45 Q 274.9 43.1 274 46.5 L 275 49 L 267 48.5 L 269.5 45 Z " /><path fill="rgb(0,0,0)" stroke="rgb(0,0,0)" stroke-width="1" opacity="0" d="M 201 78 L 204 78.5 L 204 89 L 217 89 L 217 78 L 221 78 L 221 103.5 L 217 104 L 217 92 L 204 92 L 204 103.5 L 201 104 L 201 78 Z " /><path fill="rgb(0,0,0)" stroke="rgb(0,0,0)" stroke-width="1" opacity="0" d="M 234.5 78 Q 246.5 75.5 249 82.5 L 250 95.5 L 249 99.5 L 244.5 104 L 237.5 105 L 231 102 Q 228 96.8 229 86.5 L 230 82.5 L 234.5 78 Z M 238 80 L 236 81 L 233 84 L 233 99 Q 235 104 243 102 L 246 98 L 246 85 L 245 83 Q 243 79 238 80 Z " /><path fill="rgb(0,0,0)" stroke="rgb(0,0,0)" stroke-width="1" opacity="0" d="M 258 78 L 271.5 78 L 275 80.5 L 276 88.5 L 271 92 L 277 104 L 273 104 L 273 102.5 L 266.5 93 Q 262 92 261 94.5 L 261 103.5 L 258 104 L 258 78 Z M 261 80 L 261 90 L 263 91 L 272 90 Q 274 88 273 83 Q 269 79 261 80 Z " /><path fill="rgb(0,0,0)" stroke="rgb(0,0,0)" stroke-width="1" opacity="0" d="M 285 78 L 289 78.5 L 289 104 L 285 103.5 L 285 78 Z " /><path fill="rgb(0,0,0)" stroke="rgb(0,0,0)" stroke-width="1" opacity="0" d="M 298 78 L 314.5 78 L 315 81.5 L 301 102 L 315.5 102 L 316 104 L 298.5 104 L 297 102.5 L 311 81 L 298.5 81 L 298 78 Z " /><path fill="rgb(0,0,0)" stroke="rgb(0,0,0)" stroke-width="1" opacity="0" d="M 327.5 78 L 337.5 78 L 341 81.5 Q 344.3 86.2 343 95.5 Q 341.8 101.3 337.5 104 L 330.5 105 L 324 102 Q 320.3 97.1 322 85.5 L 327.5 78 Z M 331 80 L 329 81 L 326 84 L 326 99 Q 328 104 336 102 L 339 98 L 339 85 L 338 83 Q 336 79 331 80 Z " /><path fill="rgb(0,0,0)" stroke="rgb(0,0,0)" stroke-width="1" opacity="0" d="M 351 78 Q 355.7 77 357 80.5 L 366.5 98 L 368 95.5 L 367 94.5 L 367 78 L 371 78.5 L 371 104 L 366 104 L 366 102.5 L 354.5 83 L 354 104 L 351 103.5 L 351 78 Z " /><path fill="rgb(83,93,199)" stroke="rgb(83,93,199)" stroke-width="1" opacity="0.9647058823529412" d="M 131.5 10 L 142.5 11 Q 150.3 14.3 155 20.5 L 160 31.5 L 160 77.5 L 159 77.5 Q 156.4 70.1 150.5 66 L 148 64.5 L 148 34.5 L 142.5 26 Q 138.8 22.7 130.5 24 L 101.5 43 L 94.5 46 L 81.5 37 Q 78.8 34.2 72.5 35 L 64 40.5 L 61 47.5 L 61 115 L 49.5 122 L 49 45.5 Q 51.6 32.6 60.5 26 Q 66.8 20.3 80.5 22 Q 89.5 25 95.5 31 L 124.5 12 L 131.5 10 Z " /><path fill="rgb(83,93,199)" stroke="rgb(83,93,199)" stroke-width="1" opacity="0.9647058823529412" d="M 233.5 29 L 234 65.5 L 233 65.5 L 233.5 29 Z " /><path fill="rgb(83,93,199)" stroke="rgb(83,93,199)" stroke-width="1" opacity="0.9647058823529412" d="M 240.5 29 L 241 65.5 L 240 65.5 L 240.5 29 Z " /><path fill="rgb(83,93,199)" stroke="rgb(83,93,199)" stroke-width="1" opacity="0.9647058823529412" d="M 219.5 39 L 220 65.5 L 219 65.5 L 219.5 39 Z " /><path fill="rgb(83,93,199)" stroke="rgb(83,93,199)" stroke-width="1" opacity="0.9647058823529412" d="M 226.5 39 L 227 65.5 L 226 65.5 L 226.5 39 Z " /><path fill="rgb(83,93,199)" stroke="rgb(83,93,199)" stroke-width="1" opacity="0.9647058823529412" d="M 316.5 39 L 317 65.5 L 316 65.5 L 316.5 39 Z " /><path fill="rgb(83,93,199)" stroke="rgb(83,93,199)" stroke-width="1" opacity="0.9647058823529412" d="M 330.5 39 L 331 56.5 L 330 56.5 L 330.5 39 Z " /><path fill="rgb(83,93,199)" stroke="rgb(83,93,199)" stroke-width="1" opacity="0.9647058823529412" d="M 389.5 39 L 390.5 41 L 389.5 39 Z " /><path fill="rgb(83,93,199)" stroke="rgb(83,93,199)" stroke-width="1" opacity="0.9647058823529412" d="M 67.5 42 L 79 49.5 L 79 92.5 L 80.5 93 L 122.5 66 Q 128.3 61.8 139.5 63 Q 149.8 65.8 155 73.5 L 160 84.5 L 160 127.5 Q 157.4 139.4 148.5 145 L 148 87.5 L 142.5 79 L 134.5 76 L 126.5 79 L 79 109.5 L 79 139.5 L 77.5 140 L 67.5 147 L 67 111.5 L 68 107.5 L 67 106.5 L 67.5 42 Z " /><path fill="rgb(83,93,199)" stroke="rgb(83,93,199)" stroke-width="1" opacity="0.9647058823529412" d="M 199.5 45 L 200 65.5 L 199 65.5 L 199.5 45 Z " /><path fill="rgb(83,93,199)" stroke="rgb(83,93,199)" stroke-width="1" opacity="0.9647058823529412" d="M 192.5 47 L 193 65.5 L 192 65.5 L 192.5 47 Z " /><path fill="rgb(83,93,199)" stroke="rgb(83,93,199)" stroke-width="1" opacity="0.9647058823529412" d="M 267.5 54 L 282 54.5 L 267.5 55 L 267.5 54 Z " /><path fill="rgb(83,93,199)" stroke="rgb(83,93,199)" stroke-width="1" opacity="0.9647058823529412" d="M 270.5 66 L 274 66.5 L 270.5 67 L 270.5 66 Z " /><path fill="rgb(83,93,199)" stroke="rgb(83,93,199)" stroke-width="1" opacity="0.9647058823529412" d="M 337.5 66 L 340 66.5 L 337.5 67 L 337.5 66 Z " /><path fill="rgb(83,93,199)" stroke="rgb(83,93,199)" stroke-width="1" opacity="0.9647058823529412" d="M 392.5 74 L 393 103.5 L 392 103.5 L 392.5 74 Z " /><path fill="rgb(83,93,199)" stroke="rgb(83,93,199)" stroke-width="1" opacity="0.9647058823529412" d="M 350.5 78 L 351 103.5 L 350 103.5 L 350.5 78 Z " /><path fill="rgb(83,93,199)" stroke="rgb(83,93,199)" stroke-width="1" opacity="0.9647058823529412" d="M 354.5 84 Q 357.3 85.2 355 86.5 L 354.5 104 L 354.5 84 Z " /><path fill="rgb(83,93,199)" stroke="rgb(83,93,199)" stroke-width="1" opacity="0.9647058823529412" d="M 205.5 88 L 217 88.5 L 205.5 89 L 205.5 88 Z " /><path fill="rgb(83,93,199)" stroke="rgb(83,93,199)" stroke-width="1" opacity="0.9647058823529412" d="M 327.5 99 L 328.5 101 L 327.5 99 Z " /><path fill="rgb(6,61,174)" stroke="rgb(6,61,174)" stroke-width="1" opacity="0.9882352941176471" d="M 220 29 L 226 29 L 226 34 Q 221.4 35.3 220 32.5 L 220 30.5 L 220 29 Z M 224 30 L 221 33 L 225 33 L 224 30 Z " /><path fill="rgb(6,61,174)" stroke="rgb(6,61,174)" stroke-width="1" opacity="0.9882352941176471" d="M 318 29 Q 325.5 26.5 323 34 L 317.5 35 L 318.5 33 L 322 32.5 Q 320.7 29.8 319.5 32 Q 316.5 32.7 318 29 Z " /><path fill="rgb(6,61,174)" stroke="rgb(6,61,174)" stroke-width="1" opacity="0.9882352941176471" d="M 249.5 30 L 253 31.5 L 252.5 35 L 251.5 32 Q 247.1 39.1 249 52.5 L 251.5 63 L 252.5 59 L 254 65.5 L 252.5 66 L 248 65 L 248 31.5 L 249.5 30 Z " /><path fill="rgb(6,61,174)" stroke="rgb(6,61,174)" stroke-width="1" opacity="0.9882352941176471" d="M 359.5 38 L 364.5 39 L 368 41.5 L 365 44.5 L 365 65 L 359.5 66 L 360 64.5 Q 359.2 56.8 361 53 L 364 51.5 Q 364.8 47.8 362.5 47 L 360 48 L 360 39.5 L 359.5 38 Z " /><path fill="rgb(6,61,174)" stroke="rgb(6,61,174)" stroke-width="1" opacity="0.9882352941176471" d="M 221.5 39 L 225 39.5 L 222 40 L 221.5 42 Q 218.5 40.5 221.5 39 Z " /><path fill="rgb(6,61,174)" stroke="rgb(6,61,174)" stroke-width="1" opacity="0.9882352941176471" d="M 293.5 39 L 296 40 L 295.5 42 Q 293.8 38.9 292 40.5 L 293.5 39 Z " /><path fill="rgb(6,61,174)" stroke="rgb(6,61,174)" stroke-width="1" opacity="0.9882352941176471" d="M 305.5 39 L 309 44.5 L 309 46.5 L 308.5 52 L 307.5 47 Q 304.3 48.8 306 55.5 L 307.5 60 L 308.5 53 L 309 65.5 L 307.5 65 L 304 63.5 L 304.5 46 L 306 46.5 L 305 43.5 Q 307.3 42.3 304.5 41 L 303 40.5 L 305.5 39 Z " /><path fill="rgb(6,61,174)" stroke="rgb(6,61,174)" stroke-width="1" opacity="0.9882352941176471" d="M 318 39 Q 321.8 38 323 40.5 L 322.5 43 L 320.5 43 L 318 40.5 L 318 39 Z " /><path fill="rgb(6,61,174)" stroke="rgb(6,61,174)" stroke-width="1" opacity="0.9882352941176471" d="M 333.5 39 L 337 40.5 L 336.5 43 L 335.5 41 L 333.5 42 Q 330.5 40.5 333.5 39 Z " /><path fill="rgb(6,61,174)" stroke="rgb(6,61,174)" stroke-width="1" opacity="0.9882352941176471" d="M 345.5 39 L 351 39 L 351 41.5 Q 349 39.8 347 43.5 L 347 58.5 L 349.5 63 L 352 61.5 L 352 65 L 347 65 L 346.5 63 L 345 63.5 L 344 59.5 L 346 57.5 L 346 40.5 L 345.5 39 Z " /><path fill="rgb(6,61,174)" stroke="rgb(6,61,174)" stroke-width="1" opacity="0.9882352941176471" d="M 376.5 39 L 377.5 41 L 376.5 39 Z " /><path fill="rgb(6,61,174)" stroke="rgb(6,61,174)" stroke-width="1" opacity="0.9882352941176471" d="M 388.5 41 Q 390.8 40.3 390 42.5 L 391 45 Q 387.3 46.5 388 43.5 L 388.5 41 Z " /><path fill="rgb(6,61,174)" stroke="rgb(6,61,174)" stroke-width="1" opacity="0.9882352941176471" d="M 292.5 42 L 294 43.5 L 294 65 L 288.5 66 L 289 64.5 L 289.5 53 L 290.5 63 L 293 58.5 L 293 46.5 L 292.5 42 Z " /><path fill="rgb(6,61,174)" stroke="rgb(6,61,174)" stroke-width="1" opacity="0.9882352941176471" d="M 377.5 42 L 379 42.5 L 378 43.5 L 378 65 Q 374.2 66 373 63.5 L 375 63 L 376 56.5 L 376 43.5 L 377.5 42 Z " /><path fill="rgb(6,61,174)" stroke="rgb(6,61,174)" stroke-width="1" opacity="0.9882352941176471" d="M 274.5 43 Q 279.3 42.3 280 45.5 L 281 49.5 L 280 49.5 L 279.5 48 L 278 51 L 276 50.5 L 276 48.5 Q 276.4 43.8 274.5 43 Z " /><path fill="rgb(6,61,174)" stroke="rgb(6,61,174)" stroke-width="1" opacity="0.9882352941176471" d="M 386.5 45 L 387 49.5 L 386 49.5 L 386.5 45 Z " /><path fill="rgb(6,61,174)" stroke="rgb(6,61,174)" stroke-width="1" opacity="0.9882352941176471" d="M 265.5 46 L 268 53 L 272 53.5 L 266 54 L 266 56.5 L 270.5 61 Q 276.5 60.5 278.5 64 L 279 62.5 L 278.5 61 L 280 61 L 280 65 L 268.5 66 L 265 64.5 L 264 62.5 L 265 60.5 L 263 60.5 L 262 58.5 L 264 58 L 265.5 46 Z " /><path fill="rgb(6,61,174)" stroke="rgb(6,61,174)" stroke-width="1" opacity="0.9882352941176471" d="M 212.5 48 L 213 50.5 L 212 50.5 L 212.5 48 Z " /><path fill="rgb(6,61,174)" stroke="rgb(6,61,174)" stroke-width="1" opacity="0.9882352941176471" d="M 180.5 49 L 182 57.5 L 180 58.5 L 180.5 49 Z " /><path fill="rgb(6,61,174)" stroke="rgb(6,61,174)" stroke-width="1" opacity="0.9882352941176471" d="M 336.5 52 L 338 58.5 L 337.5 60 L 342 62.5 Q 343.1 65.8 340.5 65 L 337.5 66 L 335.5 65 Q 334.3 67.3 333 64.5 L 333 62.5 L 332 56.5 L 334.5 53 L 336 53.5 L 336.5 52 Z " /><path fill="rgb(6,61,174)" stroke="rgb(6,61,174)" stroke-width="1" opacity="0.9882352941176471" d="M 322.5 55 L 323 65.5 L 321.5 65 L 317 64.5 L 320 63 Q 319.3 59.9 322 60.5 L 322.5 55 Z " /><path fill="rgb(6,61,174)" stroke="rgb(6,61,174)" stroke-width="1" opacity="0.9882352941176471" d="M 386.5 56 L 387 63 Q 392.2 65.1 391 60.5 L 392 60.5 Q 394.3 67.3 387.5 65 L 386 65.5 L 386.5 56 Z " /><path fill="rgb(6,61,174)" stroke="rgb(6,61,174)" stroke-width="1" opacity="0.9882352941176471" d="M 211 58 L 213 58.5 L 213 65 L 207 65 L 207 60.5 L 208 60.5 Q 206.9 64.7 211 63 L 211 58 Z " /><path fill="rgb(6,61,174)" stroke="rgb(6,61,174)" stroke-width="1" opacity="0.9882352941176471" d="M 198.5 59 L 199 65 L 193.5 65 L 193 63.5 L 194 60 L 196 60 Q 194.7 64.1 198 63 L 198.5 59 Z " /><path fill="rgb(6,61,174)" stroke="rgb(6,61,174)" stroke-width="1" opacity="0.9882352941176471" d="M 225.5 59 L 226 65 L 220.5 65 L 220 63.5 L 221.5 60 L 223.5 63 L 225 63 L 225.5 59 Z " /><path fill="rgb(6,61,174)" stroke="rgb(6,61,174)" stroke-width="1" opacity="0.9882352941176471" d="M 181.5 60 L 183.5 64 L 184.5 60 L 186 65.5 L 184.5 65 Q 178.2 66.7 181.5 60 Z " /><path fill="rgb(6,61,174)" stroke="rgb(6,61,174)" stroke-width="1" opacity="0.9882352941176471" d="M 239.5 61 L 240 65 L 234 65 L 234 63 Q 239.7 65 239.5 61 Z " /><path fill="rgb(6,61,174)" stroke="rgb(6,61,174)" stroke-width="1" opacity="0.9882352941176471" d="M 182.5 75 L 194 75.5 L 182.5 76 L 182.5 75 Z " /><path fill="rgb(6,61,174)" stroke="rgb(6,61,174)" stroke-width="1" opacity="0.9882352941176471" d="M 199.5 75 L 213 75.5 L 208 76 L 206.5 84 L 206 77.5 L 204.5 76 L 200.5 76 L 199.5 75 Z " /><path fill="rgb(6,61,174)" stroke="rgb(6,61,174)" stroke-width="1" opacity="0.9882352941176471" d="M 215.5 75 L 226 75.5 L 224 76 L 222.5 82 L 222 77 L 219.5 76 L 216.5 77 L 215.5 75 Z " /><path fill="rgb(6,61,174)" stroke="rgb(6,61,174)" stroke-width="1" opacity="0.9882352941176471" d="M 238.5 75 L 253 75.5 L 250 76 L 251 82.5 L 250 82.5 L 247.5 78 L 246 78.5 Q 246.9 75.5 242.5 77 L 238.5 76 L 238.5 75 Z " /><path fill="rgb(6,61,174)" stroke="rgb(6,61,174)" stroke-width="1" opacity="0.9882352941176471" d="M 256.5 75 L 257 81.5 L 256 81.5 L 256.5 75 Z " /><path fill="rgb(6,61,174)" stroke="rgb(6,61,174)" stroke-width="1" opacity="0.9882352941176471" d="M 260.5 75 L 282 75.5 L 280 76 L 280 79 Q 277 77.8 278 81.5 L 277 81.5 L 275.5 79 L 268.5 76 L 263.5 77 L 260.5 76 L 260.5 75 Z " /><path fill="rgb(6,61,174)" stroke="rgb(6,61,174)" stroke-width="1" opacity="0.9882352941176471" d="M 283 75 L 296.5 75 L 297 76.5 L 297 78.5 L 297 81 Q 300 80 299 83 L 295 80.5 Q 295.8 78.3 293.5 79 Q 292.3 76.8 291 79.5 L 290.5 82 L 290 77 L 285.5 76 Q 282.9 77.4 283.5 82 L 283 75 Z " /><path fill="rgb(6,61,174)" stroke="rgb(6,61,174)" stroke-width="1" opacity="0.9882352941176471" d="M 300.5 75 L 318.5 75 L 321 76 L 321.5 79 L 323 76 L 327 76.5 L 322 80.5 Q 322.7 83.5 319 82 L 318.5 79 L 317.5 81 L 316 77 Q 310.8 74.8 300.5 76 L 300.5 75 Z " /><path fill="rgb(6,61,174)" stroke="rgb(6,61,174)" stroke-width="1" opacity="0.9882352941176471" d="M 331.5 75 L 353 75.5 L 350 76.5 L 349.5 80 L 347.5 76 L 345 77.5 L 343 80.5 L 342 80.5 L 340.5 78 L 334.5 76 L 332.5 76 L 331.5 75 Z " /><path fill="rgb(6,61,174)" stroke="rgb(6,61,174)" stroke-width="1" opacity="0.9882352941176471" d="M 356 75 L 369 75.5 L 366 77.5 L 365.5 83 L 365 79 L 361.5 80 L 360.5 78 L 362 77.5 L 358 76 L 357.5 78 L 356 75 Z " /><path fill="rgb(6,61,174)" stroke="rgb(6,61,174)" stroke-width="1" opacity="0.9882352941176471" d="M 370 75 L 392 75.5 L 373 76 L 372.5 81 L 372 77 Q 369 78 370 75 Z " /><path fill="rgb(6,61,174)" stroke="rgb(6,61,174)" stroke-width="1" opacity="0.9882352941176471" d="M 215.5 78 L 216 80.5 L 215 80.5 L 215.5 78 Z " /><path fill="rgb(6,61,174)" stroke="rgb(6,61,174)" stroke-width="1" opacity="0.9882352941176471" d="M 358.5 79 L 359.5 81 L 358.5 79 Z " /><path fill="rgb(6,61,174)" stroke="rgb(6,61,174)" stroke-width="1" opacity="0.9882352941176471" d="M 310.5 81 L 308.5 84 Q 305.2 82.9 306 85.5 L 304 86.5 Q 305.7 81.7 301.5 83 L 301.5 82 L 309.5 82 L 310.5 81 Z " /><path fill="rgb(6,61,174)" stroke="rgb(6,61,174)" stroke-width="1" opacity="0.9882352941176471" d="M 238.5 82 L 242 82.5 L 238.5 83 L 238.5 82 Z " /><path fill="rgb(6,61,174)" stroke="rgb(6,61,174)" stroke-width="1" opacity="0.9882352941176471" d="M 264.5 82 Q 270.5 80.5 272 83.5 Q 272.8 87.3 270.5 88 L 270 86 Q 267.3 87.1 268 84.5 L 264 83 L 263.5 86 L 263 83.5 L 264.5 82 Z " /><path fill="rgb(6,61,174)" stroke="rgb(6,61,174)" stroke-width="1" opacity="0.9882352941176471" d="M 330.5 82 L 335 82.5 L 330.5 83 L 330.5 82 Z " /><path fill="rgb(6,61,174)" stroke="rgb(6,61,174)" stroke-width="1" opacity="0.9882352941176471" d="M 215.5 83 L 216 87.5 L 215 87.5 L 215.5 83 Z " /><path fill="rgb(6,61,174)" stroke="rgb(6,61,174)" stroke-width="1" opacity="0.9882352941176471" d="M 263.5 88 L 266 88.5 L 263.5 89 L 263.5 88 Z " /><path fill="rgb(6,61,174)" stroke="rgb(6,61,174)" stroke-width="1" opacity="0.9882352941176471" d="M 303.5 88 L 303 89.5 L 301.5 92 L 302 90.5 L 303.5 88 Z " /><path fill="rgb(6,61,174)" stroke="rgb(6,61,174)" stroke-width="1" opacity="0.9882352941176471" d="M 355 88 Q 357.7 86.9 357 89.5 L 357.5 91 Q 353.3 92.1 355 88 Z " /><path fill="rgb(6,61,174)" stroke="rgb(6,61,174)" stroke-width="1" opacity="0.9882352941176471" d="M 365.5 91 L 367 93.5 L 365 92.5 L 365.5 91 Z " /><path fill="rgb(6,61,174)" stroke="rgb(6,61,174)" stroke-width="1" opacity="0.9882352941176471" d="M 372.5 92 L 373 104.5 L 372 104.5 L 372.5 92 Z " /><path fill="rgb(6,61,174)" stroke="rgb(6,61,174)" stroke-width="1" opacity="0.9882352941176471" d="M 206 93 L 214 93.5 L 207 94 L 206.5 102 L 206 93 Z " /><path fill="rgb(6,61,174)" stroke="rgb(6,61,174)" stroke-width="1" opacity="0.9882352941176471" d="M 271.5 93 L 274 93.5 L 277 98.5 L 275 97.5 L 273.5 95 L 271.5 93 Z " /><path fill="rgb(6,61,174)" stroke="rgb(6,61,174)" stroke-width="1" opacity="0.9882352941176471" d="M 359 96 L 361 96 L 361 99 Q 363.7 97.9 363 100.5 L 367 107 L 359 103 L 359 96 Z " /><path fill="rgb(6,61,174)" stroke="rgb(6,61,174)" stroke-width="1" opacity="0.9882352941176471" d="M 328.5 97 L 332 99.5 L 330.5 100 L 328 99 L 328.5 97 Z " /><path fill="rgb(6,61,174)" stroke="rgb(6,61,174)" stroke-width="1" opacity="0.9882352941176471" d="M 235.5 98 L 242 99.5 L 235 100 L 235.5 98 Z " /><path fill="rgb(6,61,174)" stroke="rgb(6,61,174)" stroke-width="1" opacity="0.9882352941176471" d="M 265 98 L 270 99.5 Q 267.8 100.8 270.5 102 L 273 103.5 Q 273.8 105.8 271.5 105 L 271.5 103 L 268.5 102 Q 267.3 104.3 266 101.5 L 265 98 Z " /><path fill="rgb(6,61,174)" stroke="rgb(6,61,174)" stroke-width="1" opacity="0.9882352941176471" d="M 295 98 L 297 98.5 L 295.5 106 L 295 98 Z " /><path fill="rgb(6,61,174)" stroke="rgb(6,61,174)" stroke-width="1" opacity="0.9882352941176471" d="M 320.5 98 L 321 100 L 324 101.5 Q 321.2 103.3 325.5 105 L 327 104.5 Q 325.3 107.8 323.5 104 Q 319.8 104.8 319 102.5 L 320.5 98 Z " /><path fill="rgb(6,61,174)" stroke="rgb(6,61,174)" stroke-width="1" opacity="0.9882352941176471" d="M 304 99 Q 307 98 306 101 Q 303 102 304 99 Z " /><path fill="rgb(6,61,174)" stroke="rgb(6,61,174)" stroke-width="1" opacity="0.9882352941176471" d="M 308.5 99 L 311 99.5 L 308.5 100 L 308.5 99 Z " /><path fill="rgb(6,61,174)" stroke="rgb(6,61,174)" stroke-width="1" opacity="0.9882352941176471" d="M 229.5 100 L 231.5 103 L 229 102 L 229.5 100 Z " /><path fill="rgb(6,61,174)" stroke="rgb(6,61,174)" stroke-width="1" opacity="0.9882352941176471" d="M 283.5 103 L 284.5 105 Q 281.7 105.7 283.5 103 Z " /><path fill="rgb(6,61,174)" stroke="rgb(6,61,174)" stroke-width="1" opacity="0.9882352941176471" d="M 349.5 104 L 351.5 107 L 349 105.5 L 349.5 104 Z " /><path fill="rgb(6,61,174)" stroke="rgb(6,61,174)" stroke-width="1" opacity="0.9882352941176471" d="M 182.5 107 L 184 109.5 L 183 109.5 L 182.5 107 Z " /><path fill="rgb(6,61,174)" stroke="rgb(6,61,174)" stroke-width="1" opacity="0.9882352941176471" d="M 373.5 109 L 377 109.5 L 373.5 110 L 373.5 109 Z " /><path fill="rgb(23,72,178)" stroke="rgb(23,72,178)" stroke-width="1" opacity="0.9294117647058824" d="M 220.5 28 Q 225.8 26.8 227 29.5 L 226.5 34 L 226 29 L 220.5 29 L 220.5 28 Z " /><path fill="rgb(23,72,178)" stroke="rgb(23,72,178)" stroke-width="1" opacity="0.9294117647058824" d="M 317.5 28 L 323 28.5 L 317 29 L 316.5 34 L 316 29.5 L 317.5 28 Z " /><path fill="rgb(23,72,178)" stroke="rgb(23,72,178)" stroke-width="1" opacity="0.9294117647058824" d="M 212.5 45 L 213 47.5 L 212 47.5 L 212.5 45 Z " /><path fill="rgb(23,72,178)" stroke="rgb(23,72,178)" stroke-width="1" opacity="0.9294117647058824" d="M 262.5 62 L 263.5 64 L 262.5 62 Z " /><path fill="rgb(23,72,178)" stroke="rgb(23,72,178)" stroke-width="1" opacity="0.9294117647058824" d="M 200.5 78 L 201 103.5 L 200 103.5 L 200.5 78 Z " /><path fill="rgb(23,72,178)" stroke="rgb(23,72,178)" stroke-width="1" opacity="0.9294117647058824" d="M 390.5 108 L 389.5 110 L 390.5 108 Z " /><path fill="rgb(221,225,242)" stroke="rgb(221,225,242)" stroke-width="1" opacity="0.1568627450980392" d="M 147.5 13 L 148.5 15 L 147.5 13 Z " /><path fill="rgb(221,225,242)" stroke="rgb(221,225,242)" stroke-width="1" opacity="0.1568627450980392" d="M 120.5 14 L 119.5 16 L 120.5 14 Z " /><path fill="rgb(221,225,242)" stroke="rgb(221,225,242)" stroke-width="1" opacity="0.1568627450980392" d="M 150.5 15 L 153.5 19 L 150.5 15 Z " /><path fill="rgb(221,225,242)" stroke="rgb(221,225,242)" stroke-width="1" opacity="0.1568627450980392" d="M 115.5 17 L 114.5 19 L 115.5 17 Z " /><path fill="rgb(221,225,242)" stroke="rgb(221,225,242)" stroke-width="1" opacity="0.1568627450980392" d="M 71.5 21 L 79 21.5 L 71.5 22 L 71.5 21 Z " /><path fill="rgb(221,225,242)" stroke="rgb(221,225,242)" stroke-width="1" opacity="0.1568627450980392" d="M 109.5 21 L 108.5 23 L 109.5 21 Z " /><path fill="rgb(221,225,242)" stroke="rgb(221,225,242)" stroke-width="1" opacity="0.1568627450980392" d="M 88.5 25 L 89.5 27 L 88.5 25 Z " /><path fill="rgb(221,225,242)" stroke="rgb(221,225,242)" stroke-width="1" opacity="0.1568627450980392" d="M 128.5 25 L 127.5 27 L 128.5 25 Z " /><path fill="rgb(221,225,242)" stroke="rgb(221,225,242)" stroke-width="1" opacity="0.1568627450980392" d="M 101.5 26 L 100.5 28 L 101.5 26 Z " /><path fill="rgb(221,225,242)" stroke="rgb(221,225,242)" stroke-width="1" opacity="0.1568627450980392" d="M 142.5 26 L 144.5 29 L 142.5 26 Z " /><path fill="rgb(221,225,242)" stroke="rgb(221,225,242)" stroke-width="1" opacity="0.1568627450980392" d="M 58.5 27 L 55.5 31 L 58.5 27 Z " /><path fill="rgb(221,225,242)" stroke="rgb(221,225,242)" stroke-width="1" opacity="0.1568627450980392" d="M 91.5 27 L 92.5 29 L 91.5 27 Z " /><path fill="rgb(221,225,242)" stroke="rgb(221,225,242)" stroke-width="1" opacity="0.1568627450980392" d="M 125.5 27 L 124.5 29 L 125.5 27 Z " /><path fill="rgb(221,225,242)" stroke="rgb(221,225,242)" stroke-width="1" opacity="0.1568627450980392" d="M 94.5 29 L 97 29.5 Q 94.9 32.8 94.5 29 Z " /><path fill="rgb(221,225,242)" stroke="rgb(221,225,242)" stroke-width="1" opacity="0.1568627450980392" d="M 54.5 32 L 53.5 34 L 54.5 32 Z " /><path fill="rgb(221,225,242)" stroke="rgb(221,225,242)" stroke-width="1" opacity="0.1568627450980392" d="M 114.5 34 L 113.5 36 L 114.5 34 Z " /><path fill="rgb(221,225,242)" stroke="rgb(221,225,242)" stroke-width="1" opacity="0.1568627450980392" d="M 160.5 34 L 161 80.5 L 160 80.5 L 159 78.5 L 160 77.5 L 160.5 34 Z " /><path fill="rgb(221,225,242)" stroke="rgb(221,225,242)" stroke-width="1" opacity="0.1568627450980392" d="M 72.5 35 L 78 35.5 L 72.5 36 L 72.5 35 Z " /><path fill="rgb(221,225,242)" stroke="rgb(221,225,242)" stroke-width="1" opacity="0.1568627450980392" d="M 109.5 37 L 108.5 39 L 109.5 37 Z " /><path fill="rgb(221,225,242)" stroke="rgb(221,225,242)" stroke-width="1" opacity="0.1568627450980392" d="M 66.5 38 L 64.5 41 L 66.5 38 Z " /><path fill="rgb(221,225,242)" stroke="rgb(221,225,242)" stroke-width="1" opacity="0.1568627450980392" d="M 196.5 38 L 197.5 40 L 196.5 38 Z " /><path fill="rgb(221,225,242)" stroke="rgb(221,225,242)" stroke-width="1" opacity="0.1568627450980392" d="M 294.5 38 L 295.5 40 L 294.5 38 Z " /><path fill="rgb(221,225,242)" stroke="rgb(221,225,242)" stroke-width="1" opacity="0.1568627450980392" d="M 352.5 38 L 353 65.5 L 352 65.5 L 352.5 38 Z " /><path fill="rgb(221,225,242)" stroke="rgb(221,225,242)" stroke-width="1" opacity="0.1568627450980392" d="M 365.5 38 L 366.5 40 L 365.5 38 Z " /><path fill="rgb(221,225,242)" stroke="rgb(221,225,242)" stroke-width="1" opacity="0.1568627450980392" d="M 84.5 39 L 85.5 41 L 84.5 39 Z " /><path fill="rgb(221,225,242)" stroke="rgb(221,225,242)" stroke-width="1" opacity="0.1568627450980392" d="M 106.5 39 L 105.5 41 L 106.5 39 Z " /><path fill="rgb(221,225,242)" stroke="rgb(221,225,242)" stroke-width="1" opacity="0.1568627450980392" d="M 263.5 40 L 262.5 42 L 263.5 40 Z " /><path fill="rgb(221,225,242)" stroke="rgb(221,225,242)" stroke-width="1" opacity="0.1568627450980392" d="M 279.5 41 L 280.5 43 L 279.5 41 Z " /><path fill="rgb(221,225,242)" stroke="rgb(221,225,242)" stroke-width="1" opacity="0.1568627450980392" d="M 89.5 42 L 90.5 44 L 89.5 42 Z " /><path fill="rgb(221,225,242)" stroke="rgb(221,225,242)" stroke-width="1" opacity="0.1568627450980392" d="M 70.5 43 L 71.5 45 L 70.5 43 Z " /><path fill="rgb(221,225,242)" stroke="rgb(221,225,242)" stroke-width="1" opacity="0.1568627450980392" d="M 270.5 44 L 273 44.5 L 270.5 45 L 270.5 44 Z " /><path fill="rgb(221,225,242)" stroke="rgb(221,225,242)" stroke-width="1" opacity="0.1568627450980392" d="M 73.5 45 L 74.5 47 L 73.5 45 Z " /><path fill="rgb(221,225,242)" stroke="rgb(221,225,242)" stroke-width="1" opacity="0.1568627450980392" d="M 379.5 45 L 380 65.5 L 379 65.5 L 379.5 45 Z " /><path fill="rgb(221,225,242)" stroke="rgb(221,225,242)" stroke-width="1" opacity="0.1568627450980392" d="M 392.5 45 L 393 65.5 L 392 65.5 L 392.5 45 Z " /><path fill="rgb(221,225,242)" stroke="rgb(221,225,242)" stroke-width="1" opacity="0.1568627450980392" d="M 61.5 47 L 62 81.5 L 63 85.5 L 62 86.5 L 61.5 115 L 61.5 47 Z " /><path fill="rgb(221,225,242)" stroke="rgb(221,225,242)" stroke-width="1" opacity="0.1568627450980392" d="M 205.5 47 L 206 65.5 L 205 65.5 L 205.5 47 Z " /><path fill="rgb(221,225,242)" stroke="rgb(221,225,242)" stroke-width="1" opacity="0.1568627450980392" d="M 78.5 48 L 80 49.5 L 80 91.5 L 81 92.5 L 79 93 L 79 49.5 L 78.5 48 Z " /><path fill="rgb(221,225,242)" stroke="rgb(221,225,242)" stroke-width="1" opacity="0.1568627450980392" d="M 267.5 49 L 275 49.5 L 267.5 50 L 267.5 49 Z " /><path fill="rgb(221,225,242)" stroke="rgb(221,225,242)" stroke-width="1" opacity="0.1568627450980392" d="M 268.5 58 L 269.5 60 L 268.5 58 Z " /><path fill="rgb(221,225,242)" stroke="rgb(221,225,242)" stroke-width="1" opacity="0.1568627450980392" d="M 277.5 59 Q 281.3 58.3 282 60.5 Q 283 65 280.5 66 L 281 64.5 Q 283.2 58.2 277.5 60 L 277.5 59 Z " /><path fill="rgb(221,225,242)" stroke="rgb(221,225,242)" stroke-width="1" opacity="0.1568627450980392" d="M 121.5 66 L 120.5 68 L 121.5 66 Z " /><path fill="rgb(221,225,242)" stroke="rgb(221,225,242)" stroke-width="1" opacity="0.1568627450980392" d="M 150.5 66 L 155.5 72 L 153.5 72 L 150 68.5 L 150.5 66 Z " /><path fill="rgb(221,225,242)" stroke="rgb(221,225,242)" stroke-width="1" opacity="0.1568627450980392" d="M 113.5 71 L 112.5 73 L 113.5 71 Z " /><path fill="rgb(221,225,242)" stroke="rgb(221,225,242)" stroke-width="1" opacity="0.1568627450980392" d="M 179.5 74 L 180 105.5 L 179 105.5 L 179.5 74 Z " /><path fill="rgb(221,225,242)" stroke="rgb(221,225,242)" stroke-width="1" opacity="0.1568627450980392" d="M 158.5 76 L 157.5 78 L 158.5 76 Z " /><path fill="rgb(221,225,242)" stroke="rgb(221,225,242)" stroke-width="1" opacity="0.1568627450980392" d="M 201.5 77 L 205 78.5 L 204.5 89 L 204 78 Q 200.7 78.8 201.5 77 Z " /><path fill="rgb(221,225,242)" stroke="rgb(221,225,242)" stroke-width="1" opacity="0.1568627450980392" d="M 218.5 77 L 221 77.5 L 218.5 78 L 218.5 77 Z " /><path fill="rgb(221,225,242)" stroke="rgb(221,225,242)" stroke-width="1" opacity="0.1568627450980392" d="M 236.5 77 L 243 77.5 L 236.5 78 L 236.5 77 Z " /><path fill="rgb(221,225,242)" stroke="rgb(221,225,242)" stroke-width="1" opacity="0.1568627450980392" d="M 258.5 77 L 270 77.5 L 258.5 78 L 258.5 77 Z " /><path fill="rgb(221,225,242)" stroke="rgb(221,225,242)" stroke-width="1" opacity="0.1568627450980392" d="M 286.5 77 L 289 77.5 L 286.5 78 L 286.5 77 Z " /><path fill="rgb(221,225,242)" stroke="rgb(221,225,242)" stroke-width="1" opacity="0.1568627450980392" d="M 298.5 77 L 314 77.5 L 298.5 78 L 298.5 77 Z " /><path fill="rgb(221,225,242)" stroke="rgb(221,225,242)" stroke-width="1" opacity="0.1568627450980392" d="M 329.5 77 L 336 77.5 L 329.5 78 L 329.5 77 Z " /><path fill="rgb(221,225,242)" stroke="rgb(221,225,242)" stroke-width="1" opacity="0.1568627450980392" d="M 351.5 77 Q 355.3 76.3 356 78.5 L 354.5 78 Q 350.5 78.8 351.5 77 Z " /><path fill="rgb(221,225,242)" stroke="rgb(221,225,242)" stroke-width="1" opacity="0.1568627450980392" d="M 102.5 78 L 101.5 80 L 102.5 78 Z " /><path fill="rgb(221,225,242)" stroke="rgb(221,225,242)" stroke-width="1" opacity="0.1568627450980392" d="M 126.5 79 L 125.5 81 L 126.5 79 Z " /><path fill="rgb(221,225,242)" stroke="rgb(221,225,242)" stroke-width="1" opacity="0.1568627450980392" d="M 142.5 79 L 144.5 82 L 142.5 79 Z " /><path fill="rgb(221,225,242)" stroke="rgb(221,225,242)" stroke-width="1" opacity="0.1568627450980392" d="M 232.5 79 L 231.5 81 L 232.5 79 Z " /><path fill="rgb(221,225,242)" stroke="rgb(221,225,242)" stroke-width="1" opacity="0.1568627450980392" d="M 246.5 79 L 247.5 81 L 246.5 79 Z " /><path fill="rgb(221,225,242)" stroke="rgb(221,225,242)" stroke-width="1" opacity="0.1568627450980392" d="M 325.5 79 L 323.5 82 L 325.5 79 Z " /><path fill="rgb(221,225,242)" stroke="rgb(221,225,242)" stroke-width="1" opacity="0.1568627450980392" d="M 339.5 79 L 340.5 81 L 339.5 79 Z " /><path fill="rgb(221,225,242)" stroke="rgb(221,225,242)" stroke-width="1" opacity="0.1568627450980392" d="M 66.5 80 L 67 86.5 L 66 86.5 L 66.5 80 Z " /><path fill="rgb(221,225,242)" stroke="rgb(221,225,242)" stroke-width="1" opacity="0.1568627450980392" d="M 237.5 80 L 242 80.5 L 237.5 81 L 237.5 80 Z " /><path fill="rgb(221,225,242)" stroke="rgb(221,225,242)" stroke-width="1" opacity="0.1568627450980392" d="M 261 80 L 269 80.5 L 262 81 L 262 90 L 267.5 90 L 267.5 91 Q 262.3 92.3 261 89.5 L 261 80 Z " /><path fill="rgb(221,225,242)" stroke="rgb(221,225,242)" stroke-width="1" opacity="0.1568627450980392" d="M 330.5 80 L 334 80.5 L 330.5 81 L 330.5 80 Z " /><path fill="rgb(221,225,242)" stroke="rgb(221,225,242)" stroke-width="1" opacity="0.1568627450980392" d="M 48.5 81 L 49 98.5 L 48 98.5 L 48.5 81 Z " /><path fill="rgb(221,225,242)" stroke="rgb(221,225,242)" stroke-width="1" opacity="0.1568627450980392" d="M 235.5 81 L 233.5 84 L 235.5 81 Z " /><path fill="rgb(221,225,242)" stroke="rgb(221,225,242)" stroke-width="1" opacity="0.1568627450980392" d="M 243.5 81 L 244.5 83 L 243.5 81 Z " /><path fill="rgb(221,225,242)" stroke="rgb(221,225,242)" stroke-width="1" opacity="0.1568627450980392" d="M 271.5 81 L 273 83.5 L 272 83.5 L 271.5 81 Z " /><path fill="rgb(221,225,242)" stroke="rgb(221,225,242)" stroke-width="1" opacity="0.1568627450980392" d="M 336.5 81 L 337.5 83 L 336.5 81 Z " /><path fill="rgb(221,225,242)" stroke="rgb(221,225,242)" stroke-width="1" opacity="0.1568627450980392" d="M 310.5 82 L 309.5 84 L 310.5 82 Z " /><path fill="rgb(221,225,242)" stroke="rgb(221,225,242)" stroke-width="1" opacity="0.1568627450980392" d="M 314.5 82 L 313.5 84 L 314.5 82 Z " /><path fill="rgb(221,225,242)" stroke="rgb(221,225,242)" stroke-width="1" opacity="0.1568627450980392" d="M 94.5 83 L 93.5 85 L 91.5 86 L 92.5 84 L 94.5 83 Z " /><path fill="rgb(221,225,242)" stroke="rgb(221,225,242)" stroke-width="1" opacity="0.1568627450980392" d="M 118.5 84 L 117.5 86 L 118.5 84 Z " /><path fill="rgb(221,225,242)" stroke="rgb(221,225,242)" stroke-width="1" opacity="0.1568627450980392" d="M 276.5 84 L 277 86.5 L 276 86.5 L 276.5 84 Z " /><path fill="rgb(221,225,242)" stroke="rgb(221,225,242)" stroke-width="1" opacity="0.1568627450980392" d="M 312.5 85 L 311.5 87 L 312.5 85 Z " /><path fill="rgb(221,225,242)" stroke="rgb(221,225,242)" stroke-width="1" opacity="0.1568627450980392" d="M 89.5 86 L 88.5 88 L 82.5 92 L 85.5 88 L 89.5 86 Z " /><path fill="rgb(221,225,242)" stroke="rgb(221,225,242)" stroke-width="1" opacity="0.1568627450980392" d="M 160.5 87 L 161 124.5 L 160 124.5 L 160.5 87 Z " /><path fill="rgb(221,225,242)" stroke="rgb(221,225,242)" stroke-width="1" opacity="0.1568627450980392" d="M 310.5 88 L 308.5 91 L 310.5 88 Z " /><path fill="rgb(221,225,242)" stroke="rgb(221,225,242)" stroke-width="1" opacity="0.1568627450980392" d="M 275.5 89 L 273.5 92 L 275.5 89 Z " /><path fill="rgb(221,225,242)" stroke="rgb(221,225,242)" stroke-width="1" opacity="0.1568627450980392" d="M 305.5 89 L 304.5 91 L 305.5 89 Z " /><path fill="rgb(221,225,242)" stroke="rgb(221,225,242)" stroke-width="1" opacity="0.1568627450980392" d="M 204.5 92 L 205 103.5 L 201.5 105 L 201.5 104 L 204 103.5 L 204.5 92 Z " /><path fill="rgb(221,225,242)" stroke="rgb(221,225,242)" stroke-width="1" opacity="0.1568627450980392" d="M 307.5 92 L 306.5 94 L 307.5 92 Z " /><path fill="rgb(221,225,242)" stroke="rgb(221,225,242)" stroke-width="1" opacity="0.1568627450980392" d="M 104.5 93 L 102.5 96 L 93.5 101 L 94.5 99 L 104.5 93 Z " /><path fill="rgb(221,225,242)" stroke="rgb(221,225,242)" stroke-width="1" opacity="0.1568627450980392" d="M 262.5 93 Q 267 92 268 94.5 L 266.5 94 L 262 94 L 262 103.5 L 258.5 105 L 258.5 104 L 261 103.5 L 261 94.5 L 262.5 93 Z " /><path fill="rgb(221,225,242)" stroke="rgb(221,225,242)" stroke-width="1" opacity="0.1568627450980392" d="M 302.5 93 L 301.5 95 L 302.5 93 Z " /><path fill="rgb(221,225,242)" stroke="rgb(221,225,242)" stroke-width="1" opacity="0.1568627450980392" d="M 268.5 96 L 269.5 98 L 268.5 96 Z " /><path fill="rgb(221,225,242)" stroke="rgb(221,225,242)" stroke-width="1" opacity="0.1568627450980392" d="M 300.5 96 L 299.5 98 L 300.5 96 Z " /><path fill="rgb(221,225,242)" stroke="rgb(221,225,242)" stroke-width="1" opacity="0.1568627450980392" d="M 244.5 99 L 242.5 102 L 240 101.5 L 244.5 99 Z " /><path fill="rgb(221,225,242)" stroke="rgb(221,225,242)" stroke-width="1" opacity="0.1568627450980392" d="M 270.5 99 L 271.5 101 L 270.5 99 Z " /><path fill="rgb(221,225,242)" stroke="rgb(221,225,242)" stroke-width="1" opacity="0.1568627450980392" d="M 302.5 99 L 302.5 101 L 316 101.5 L 301 102 L 302.5 99 Z " /><path fill="rgb(221,225,242)" stroke="rgb(221,225,242)" stroke-width="1" opacity="0.1568627450980392" d="M 337.5 99 L 335.5 102 L 333 101.5 L 337.5 99 Z " /><path fill="rgb(221,225,242)" stroke="rgb(221,225,242)" stroke-width="1" opacity="0.1568627450980392" d="M 235.5 100 L 239 101.5 L 236.5 102 L 235.5 100 Z " /><path fill="rgb(221,225,242)" stroke="rgb(221,225,242)" stroke-width="1" opacity="0.1568627450980392" d="M 91.5 101 L 90.5 103 L 91.5 101 Z " /><path fill="rgb(221,225,242)" stroke="rgb(221,225,242)" stroke-width="1" opacity="0.1568627450980392" d="M 247.5 101 L 245.5 104 L 247.5 101 Z " /><path fill="rgb(221,225,242)" stroke="rgb(221,225,242)" stroke-width="1" opacity="0.1568627450980392" d="M 329.5 101 L 332 101.5 L 329.5 102 L 329.5 101 Z " /><path fill="rgb(221,225,242)" stroke="rgb(221,225,242)" stroke-width="1" opacity="0.1568627450980392" d="M 340.5 101 L 339.5 103 L 340.5 101 Z " /><path fill="rgb(221,225,242)" stroke="rgb(221,225,242)" stroke-width="1" opacity="0.1568627450980392" d="M 364.5 101 L 365.5 103 L 364.5 101 Z " /><path fill="rgb(221,225,242)" stroke="rgb(221,225,242)" stroke-width="1" opacity="0.1568627450980392" d="M 232.5 102 L 233.5 104 L 232.5 102 Z " /><path fill="rgb(221,225,242)" stroke="rgb(221,225,242)" stroke-width="1" opacity="0.1568627450980392" d="M 325.5 102 L 326.5 104 L 325.5 102 Z " /><path fill="rgb(221,225,242)" stroke="rgb(221,225,242)" stroke-width="1" opacity="0.1568627450980392" d="M 88.5 103 L 87.5 105 L 88.5 103 Z " /><path fill="rgb(221,225,242)" stroke="rgb(221,225,242)" stroke-width="1" opacity="0.1568627450980392" d="M 277.5 103 L 276.5 105 L 274 104.5 L 277.5 103 Z " /><path fill="rgb(221,225,242)" stroke="rgb(221,225,242)" stroke-width="1" opacity="0.1568627450980392" d="M 218.5 104 L 221 104.5 L 218.5 105 L 218.5 104 Z " /><path fill="rgb(221,225,242)" stroke="rgb(221,225,242)" stroke-width="1" opacity="0.1568627450980392" d="M 285.5 104 L 289 104.5 L 285.5 105 L 285.5 104 Z " /><path fill="rgb(221,225,242)" stroke="rgb(221,225,242)" stroke-width="1" opacity="0.1568627450980392" d="M 299.5 104 L 316 104.5 L 299.5 105 L 299.5 104 Z " /><path fill="rgb(221,225,242)" stroke="rgb(221,225,242)" stroke-width="1" opacity="0.1568627450980392" d="M 351.5 104 L 354 104.5 L 351.5 105 L 351.5 104 Z " /><path fill="rgb(221,225,242)" stroke="rgb(221,225,242)" stroke-width="1" opacity="0.1568627450980392" d="M 366.5 104 L 370 104.5 L 366.5 105 L 366.5 104 Z " /><path fill="rgb(221,225,242)" stroke="rgb(221,225,242)" stroke-width="1" opacity="0.1568627450980392" d="M 85.5 105 L 84.5 107 L 80 109 L 79.5 140 L 79 109.5 L 85.5 105 Z " /><path fill="rgb(221,225,242)" stroke="rgb(221,225,242)" stroke-width="1" opacity="0.1568627450980392" d="M 186.5 111 L 386 111.5 L 186.5 112 L 186.5 111 Z " /><path fill="rgb(221,225,242)" stroke="rgb(221,225,242)" stroke-width="1" opacity="0.1568627450980392" d="M 66.5 112 L 67 124.5 L 66 124.5 L 66.5 112 Z " /><path fill="rgb(221,225,242)" stroke="rgb(221,225,242)" stroke-width="1" opacity="0.1568627450980392" d="M 48.5 117 L 49.5 122 L 53.5 119 L 52.5 121 L 49.5 123 Q 46.6 121.6 48.5 117 Z " /><path fill="rgb(221,225,242)" stroke="rgb(221,225,242)" stroke-width="1" opacity="0.1568627450980392" d="M 66.5 133 L 67 146.5 L 66 146.5 L 66.5 133 Z " /><path fill="rgb(221,225,242)" stroke="rgb(221,225,242)" stroke-width="1" opacity="0.1568627450980392" d="M 147.5 134 L 148.5 145 L 155 139.5 L 148.5 146 L 147 144.5 L 147.5 134 Z " /><path fill="rgb(221,225,242)" stroke="rgb(221,225,242)" stroke-width="1" opacity="0.1568627450980392" d="M 77.5 140 L 76.5 142 L 77.5 140 Z " /><path fill="rgb(221,225,242)" stroke="rgb(221,225,242)" stroke-width="1" opacity="0.1568627450980392" d="M 74.5 142 L 72.5 145 L 68.5 147 L 69.5 145 L 74.5 142 Z " /><path fill="rgb(6,61,173)" stroke="rgb(6,61,173)" stroke-width="1" opacity="1" d="M 219.5 29 L 221.5 32 Q 223.3 28.3 225 31.5 Q 225.9 34.5 221.5 33 L 221.5 34 L 226 34.5 L 220.5 35 Q 217.6 33.6 219.5 29 Z " /><path fill="rgb(6,61,173)" stroke="rgb(6,61,173)" stroke-width="1" opacity="1" d="M 234 29 L 239.5 29 L 240 29.5 L 240 60.5 L 239 63 L 234 62.5 L 234 29 Z " /><path fill="rgb(6,61,173)" stroke="rgb(6,61,173)" stroke-width="1" opacity="1" d="M 247 29 L 253.5 29 L 254 29.5 L 254 64.5 L 253 64.5 L 252.5 59 L 251.5 63 L 249 52.5 L 249 38.5 L 251.5 32 L 252.5 35 L 253 31.5 L 249.5 30 L 248 31.5 L 248 65 L 252 65.5 L 247 66 L 247 29 Z " /><path fill="rgb(6,61,173)" stroke="rgb(6,61,173)" stroke-width="1" opacity="1" d="M 317.5 29 L 318 32 L 320.5 31 L 321.5 33 L 318 33.5 L 323 34 L 323.5 29 L 324 33.5 Q 323 36 318.5 35 Q 315.6 33.6 317.5 29 Z " /><path fill="rgb(6,61,173)" stroke="rgb(6,61,173)" stroke-width="1" opacity="1" d="M 180.5 38 Q 185 37 186 39.5 L 186.5 41 Q 188.1 37.1 194.5 38 L 199.5 40 Q 201.5 37 207.5 38 L 211 40.5 L 213 58 L 211 58 L 211 63 L 208 63 L 207.5 60 L 207 65 L 212 65.5 L 206 66 L 206 46.5 L 205 44 L 199 45 L 198 54.5 L 199 58.5 L 198 63 L 196 63 Q 197.3 58.9 194 60 L 193.5 63 L 193 46.5 L 190.5 44 L 186 45 L 186 64.5 L 184.5 66 Q 179.1 66.6 179 65.5 L 179 39.5 L 180.5 38 Z M 181 49 L 180 59 L 182 58 L 181 49 Z M 182 60 Q 178 67 185 65 L 185 60 L 184 64 L 182 60 Z " /><path fill="rgb(6,61,173)" stroke="rgb(6,61,173)" stroke-width="1" opacity="1" d="M 220 38 L 225.5 38 L 226 38.5 L 226 58.5 L 225 63 L 222 61.5 L 221.5 60 L 220.5 63 L 220 41.5 L 222 41.5 Q 221.2 38.9 224.5 40 L 224.5 39 L 220.5 40 L 220 38 Z " /><path fill="rgb(6,61,173)" stroke="rgb(6,61,173)" stroke-width="1" opacity="1" d="M 268.5 38 Q 277.4 37.1 280 42.5 Q 283.3 46.4 282 54 L 268 53 L 268 50 L 275 50 L 275 46.5 Q 274.3 43.3 269.5 44 L 266.5 49 L 265.5 46 L 264 58 L 262 58.5 L 263.5 61 L 265 60.5 L 264 62.5 L 264.5 64 Q 258 60 260 47.5 L 264.5 40 L 268.5 38 Z M 275 43 Q 276 44 276 49 L 276 51 L 278 51 L 280 48 L 280 50 L 281 50 L 280 46 Q 279 42 275 43 Z " /><path fill="rgb(6,61,173)" stroke="rgb(6,61,173)" stroke-width="1" opacity="1" d="M 289.5 38 L 294 38.5 Q 291.3 40.3 295.5 42 L 297.5 39 L 305 38 Q 306.1 40.7 303.5 40 L 303.5 41 L 306 42.5 L 306 44.5 L 305.5 47 L 304 46.5 L 304 63.5 L 305.5 65 L 308 65.5 L 304.5 66 L 303 64.5 L 303 46.5 L 299.5 43 Q 298.4 45.8 295 45 L 295 65.5 Q 294.9 66.6 289.5 66 L 288 64.5 L 288 39.5 L 289.5 38 Z M 293 42 L 293 47 L 293 59 L 291 63 L 290 54 L 289 54 L 289 65 L 294 65 L 294 44 L 293 42 Z " /><path fill="rgb(6,61,173)" stroke="rgb(6,61,173)" stroke-width="1" opacity="1" d="M 317 38 Q 322.4 36.5 324 39.5 L 323.5 65 L 322.5 55 L 322 61 L 320 61 Q 321.1 63.7 318.5 63 L 317 63.5 L 317 38 Z M 318 39 L 318 41 L 321 43 L 323 43 L 323 41 Q 322 38 318 39 Z " /><path fill="rgb(6,61,173)" stroke="rgb(6,61,173)" stroke-width="1" opacity="1" d="M 331 38 Q 336.4 36.5 338 39.5 L 337.5 58 L 336.5 52 L 335.5 54 L 334 53.5 Q 331.2 55.2 332 60.5 L 335.5 65 L 337 65.5 L 335.5 66 L 332 64 L 331 61.5 L 331 38 Z M 334 39 Q 331 41 334 42 L 336 41 L 337 43 L 337 41 L 334 39 Z " /><path fill="rgb(6,61,173)" stroke="rgb(6,61,173)" stroke-width="1" opacity="1" d="M 346.5 38 Q 351.9 37.4 352 38.5 L 352 60.5 L 349 62.5 L 347 58.5 L 347 43.5 Q 349 39.8 351 41.5 Q 352.4 36.9 346.5 39 L 346.5 38 Z " /><path fill="rgb(6,61,173)" stroke="rgb(6,61,173)" stroke-width="1" opacity="1" d="M 360.5 38 L 365 38.5 L 360 39 L 360 47.5 L 361.5 48 Q 362.8 45.7 364 48.5 Q 364.8 52.3 362.5 53 Q 359.9 52.2 361 55.5 L 360 56.5 L 360 65 L 365 64.5 L 365 44.5 L 368 41.5 L 367 40.5 Q 366.2 37.9 369.5 39 L 374.5 38 L 377.5 41 L 378.5 40 Q 380.8 37.3 386.5 38 L 391 41.5 L 392 43.5 L 392 59.5 L 391 63 L 387 63 L 387 56.5 L 386 56.5 L 385.5 65 L 385 45.5 L 383.5 44 L 379 45 L 379 65.5 Q 378.9 66.6 373.5 66 L 372 64.5 L 372 45.5 L 370.5 44 L 366 45 L 366 65.5 Q 365.9 66.6 360.5 66 L 359 64.5 L 359 39.5 L 360.5 38 Z M 389 41 L 388 44 Q 387 47 391 45 L 390 43 Q 391 40 389 41 Z M 378 42 L 376 44 L 376 57 L 375 63 L 373 64 Q 374 66 378 65 L 378 44 L 379 43 L 378 42 Z M 387 45 L 386 50 L 387 50 L 387 45 Z " /><path fill="rgb(6,61,173)" stroke="rgb(6,61,173)" stroke-width="1" opacity="1" d="M 306.5 39 L 309 43.5 L 308 43.5 L 306.5 39 Z " /><path fill="rgb(6,61,173)" stroke="rgb(6,61,173)" stroke-width="1" opacity="1" d="M 345.5 40 L 346 57.5 L 345 57.5 L 345.5 40 Z " /><path fill="rgb(6,61,173)" stroke="rgb(6,61,173)" stroke-width="1" opacity="1" d="M 308.5 45 L 310 45.5 L 310 65.5 L 309 65.5 L 308.5 53 L 307.5 60 Q 305.1 55.9 306 48.5 L 308 47.5 L 308.5 52 L 309 46.5 L 308.5 45 Z " /><path fill="rgb(6,61,173)" stroke="rgb(6,61,173)" stroke-width="1" opacity="1" d="M 266.5 54 L 267 56.5 L 266 56.5 L 266.5 54 Z " /><path fill="rgb(6,61,173)" stroke="rgb(6,61,173)" stroke-width="1" opacity="1" d="M 345.5 59 L 345 60.5 Q 346.9 65.9 343.5 65 L 340.5 66 L 340.5 65 Q 343.1 65.8 342 62.5 L 339 60.5 L 345.5 59 Z " /><path fill="rgb(6,61,173)" stroke="rgb(6,61,173)" stroke-width="1" opacity="1" d="M 270.5 60 L 281 60 L 281 64.5 L 280 64.5 Q 281.5 60.1 278.5 61 L 279 62.5 L 278.5 64 Q 276.5 60.5 270.5 61 L 270.5 60 Z " /><path fill="rgb(6,61,173)" stroke="rgb(6,61,173)" stroke-width="1" opacity="1" d="M 346.5 63 L 347 65 L 352 65.5 L 346 66 L 346.5 63 Z " /><path fill="rgb(6,61,173)" stroke="rgb(6,61,173)" stroke-width="1" opacity="1" d="M 266.5 64 L 267.5 66 L 266.5 64 Z " /><path fill="rgb(6,61,173)" stroke="rgb(6,61,173)" stroke-width="1" opacity="1" d="M 193.5 65 L 199 65.5 L 193.5 66 L 193.5 65 Z " /><path fill="rgb(6,61,173)" stroke="rgb(6,61,173)" stroke-width="1" opacity="1" d="M 220.5 65 L 226 65.5 L 220.5 66 L 220.5 65 Z " /><path fill="rgb(6,61,173)" stroke="rgb(6,61,173)" stroke-width="1" opacity="1" d="M 234.5 65 L 240 65.5 L 234.5 66 L 234.5 65 Z " /><path fill="rgb(6,61,173)" stroke="rgb(6,61,173)" stroke-width="1" opacity="1" d="M 274.5 65 L 279 65.5 L 274.5 66 L 274.5 65 Z " /><path fill="rgb(6,61,173)" stroke="rgb(6,61,173)" stroke-width="1" opacity="1" d="M 317.5 65 L 322 65.5 L 317.5 66 L 317.5 65 Z " /><path fill="rgb(6,61,173)" stroke="rgb(6,61,173)" stroke-width="1" opacity="1" d="M 387.5 65 L 392 65.5 L 387.5 66 L 387.5 65 Z " /><path fill="rgb(6,61,173)" stroke="rgb(6,61,173)" stroke-width="1" opacity="1" d="M 180 74 L 392 74.5 L 370 75 L 370 77 L 367 77.5 L 367 91.5 L 365 91.5 L 367 96.5 L 366 96.5 L 354.5 75 L 354 77 L 352 76.5 L 352.5 75 L 331 75.5 L 333 76.5 L 330.5 77 Q 329 74.5 327.5 78 L 323 81.5 L 322 83.5 L 322 98.5 L 322.5 100 Q 320.3 100.8 321 98.5 L 320 98.5 L 319 102.5 Q 319.8 104.8 323.5 104 L 322.5 101 L 326 103.5 L 326.5 105 L 328.5 105 Q 336.2 105.8 340 104 L 343 98.5 L 343 83.5 L 338.5 78 L 336 77.5 L 338.5 77 L 342 79.5 L 342.5 81 L 343 79 Q 345.7 80.1 345 77.5 L 347.5 76 L 350 80.5 L 350 103.5 L 349 105.5 L 351.5 107 L 351.5 105 L 355 105 L 355 91.5 L 358.5 91 L 358.5 93 Q 360.8 92.3 360 94.5 L 360.5 96 L 359 96.5 L 359 103 L 367 107 L 367 105 L 371 104.5 L 371 77.5 L 372 77.5 L 372.5 81 L 373 76 L 392 76 L 392 104.5 L 391.5 107 L 390 107 L 390 109 Q 386.9 108.3 387.5 111 L 184 111 L 183.5 108 Q 181.8 110.8 180 106.5 L 180 74 Z M 183 75 L 183 76 L 194 76 L 183 75 Z M 200 75 L 201 76 Q 202 79 199 78 L 200 81 L 200 105 L 205 105 L 205 92 L 217 92 L 217 104 L 216 105 L 221 105 L 222 77 L 223 82 L 224 78 Q 223 75 226 76 L 226 75 L 215 76 L 218 77 L 217 88 L 216 83 L 215 88 L 205 88 L 205 78 L 205 76 L 206 78 L 207 84 L 208 76 L 213 76 L 200 75 Z M 239 75 Q 238 77 242 76 L 242 77 L 237 76 L 234 78 L 229 84 L 229 99 L 230 100 L 229 102 L 232 103 Q 234 102 233 105 L 236 105 L 244 105 L 245 104 L 246 106 L 250 99 L 250 84 L 247 80 L 248 78 L 250 81 L 250 76 L 253 76 L 239 75 Z M 257 75 L 256 82 L 257 82 L 257 75 Z M 259 75 L 258 104 L 258 105 L 262 105 L 262 94 L 267 94 Q 266 98 269 97 L 269 99 L 265 98 L 268 103 L 270 102 L 269 101 L 271 100 L 270 103 L 272 103 L 271 105 L 278 105 L 273 97 L 274 94 L 272 94 L 277 88 L 276 81 L 276 79 L 277 82 L 278 82 L 278 79 L 280 79 Q 278 75 282 76 L 282 75 L 260 76 L 263 77 L 259 77 L 259 75 Z M 283 75 L 284 82 L 284 78 L 288 76 L 288 77 L 285 78 L 285 104 L 283 104 L 284 105 L 289 105 L 290 77 L 291 82 L 293 78 L 295 79 L 298 83 Q 300 84 299 81 L 310 82 L 302 82 L 302 83 Q 306 82 304 87 L 306 86 Q 305 83 308 84 L 297 101 Q 296 104 299 105 L 316 105 Q 316 105 316 101 L 315 101 L 307 101 L 306 99 Q 303 98 304 101 L 303 101 Q 307 90 315 84 L 317 79 L 318 81 L 319 79 L 319 82 Q 323 83 322 81 L 327 77 L 323 76 L 322 79 L 321 76 L 319 75 L 300 76 L 313 76 L 313 77 L 300 77 L 299 76 L 298 76 Q 299 79 297 78 L 297 77 L 297 75 L 283 75 Z M 356 75 L 358 78 L 358 76 L 362 78 L 361 78 L 362 80 L 365 79 L 366 83 L 366 78 L 369 76 L 356 75 Z M 216 78 L 215 81 L 216 81 L 216 78 Z M 373 92 L 372 105 L 373 105 L 373 92 Z M 206 93 L 207 102 L 207 94 L 214 94 L 206 93 Z M 295 98 L 296 106 L 297 99 L 295 98 Z M 309 99 L 309 100 L 311 100 L 309 99 Z M 374 109 L 374 110 L 377 110 L 374 109 Z " /><path fill="rgb(6,61,173)" stroke="rgb(6,61,173)" stroke-width="1" opacity="1" d="M 243.5 77 L 246 77.5 L 243.5 78 L 243.5 77 Z " /><path fill="rgb(6,61,173)" stroke="rgb(6,61,173)" stroke-width="1" opacity="1" d="M 236.5 81 L 242.5 81 L 243 83 L 244.5 83 L 244.5 84 L 243 84.5 L 246 85 L 246 96.5 L 242.5 101 L 236 100.5 L 242 99.5 L 235.5 98 L 234 98.5 L 233 96.5 L 233 85.5 L 236.5 81 Z M 239 82 L 239 83 L 242 83 L 239 82 Z " /><path fill="rgb(6,61,173)" stroke="rgb(6,61,173)" stroke-width="1" opacity="1" d="M 262 81 L 270 81.5 L 264 82.5 L 268 84.5 L 270 87.5 L 272 87.5 Q 272.8 89.8 270.5 89 L 269.5 90 L 262 90 L 262 81 Z M 264 83 L 263 86 L 264 86 L 264 83 Z M 264 88 L 264 89 L 266 89 L 264 88 Z " /><path fill="rgb(6,61,173)" stroke="rgb(6,61,173)" stroke-width="1" opacity="1" d="M 329.5 81 L 336 81 Q 335 84 338 83 L 338 85.5 L 339 86.5 L 339 95.5 L 335.5 101 Q 328.5 102.5 327 98.5 L 326 96.5 L 326 85.5 L 329.5 81 Z M 331 82 L 331 83 L 335 83 L 331 82 Z M 329 97 Q 327 100 330 99 L 329 97 Z " /></svg>