<svg width="420" height="148" version="1.1" xmlns="http://www.w3.org/2000/svg" desc="Created with imagetracer.js version 1.2.6" ><path fill="rgb(254,254,254)" stroke="rgb(254,254,254)" stroke-width="1" opacity="1" d="M 57.5 28 L 55.5 31 L 57.5 28 Z " /><path fill="rgb(254,254,254)" stroke="rgb(254,254,254)" stroke-width="1" opacity="1" d="M 150.5 68 L 151.5 70 L 150.5 68 Z " /><path fill="rgb(254,254,254)" stroke="rgb(254,254,254)" stroke-width="1" opacity="1" d="M 62 77 L 67 77 L 67 79 L 62 79 L 62 77 Z " /><path fill="rgb(254,254,254)" stroke="rgb(254,254,254)" stroke-width="1" opacity="1" d="M 237.5 77 L 242 77.5 L 237.5 78 L 237.5 77 Z " /><path fill="rgb(254,254,254)" stroke="rgb(254,254,254)" stroke-width="1" opacity="1" d="M 260.5 77 L 269 77.5 L 260.5 78 L 260.5 77 Z " /><path fill="rgb(254,254,254)" stroke="rgb(254,254,254)" stroke-width="1" opacity="1" d="M 330.5 77 L 335 77.5 L 330.5 78 L 330.5 77 Z " /><path fill="rgb(254,254,254)" stroke="rgb(254,254,254)" stroke-width="1" opacity="1" d="M 80.5 80 L 93 84.5 L 90.5 85 Q 87.5 82 81.5 82 L 80.5 80 Z " /><path fill="rgb(254,254,254)" stroke="rgb(254,254,254)" stroke-width="1" opacity="1" d="M 47.5 81 L 49 81.5 L 35.5 88 L 20.5 84 L 6.5 84 L 0.5 87 L 0 85.5 Q 5.1 80.1 17.5 82 L 32.5 86 L 37.5 86 L 47.5 81 Z " /><path fill="rgb(254,254,254)" stroke="rgb(254,254,254)" stroke-width="1" opacity="1" d="M 271.5 81 L 272.5 83 L 271.5 81 Z " /><path fill="rgb(254,254,254)" stroke="rgb(254,254,254)" stroke-width="1" opacity="1" d="M 311.5 81 L 310.5 83 L 311.5 81 Z " /><path fill="rgb(254,254,254)" stroke="rgb(254,254,254)" stroke-width="1" opacity="1" d="M 64.5 90 L 67 90.5 L 62 93 Q 60.9 90.3 63.5 91 L 64.5 90 Z " /><path fill="rgb(254,254,254)" stroke="rgb(254,254,254)" stroke-width="1" opacity="1" d="M 105.5 93 L 109 95.5 Q 108.3 97.8 110.5 97 L 125 110.5 Q 124.3 112.8 126.5 112 L 141 124.5 Q 140.3 126.8 142.5 126 L 148 132.5 L 140.5 126 L 137.5 124 L 122 110.5 L 118.5 106 L 106 96 L 105.5 93 Z " /><path fill="rgb(254,254,254)" stroke="rgb(254,254,254)" stroke-width="1" opacity="1" d="M 33.5 98 L 46.5 99 L 48.5 98 L 46.5 101 L 37.5 100 L 49 112.5 L 48.5 114 L 33.5 98 Z " /><path fill="rgb(254,254,254)" stroke="rgb(254,254,254)" stroke-width="1" opacity="1" d="M 0.5 101 L 35.5 136 L 38.5 136 L 45 131.5 Q 44.2 128.9 47.5 130 L 50.5 134 Q 52.8 133.3 52 135.5 L 61 143 L 63.5 147 L 65 147.5 L 62.5 148 L 59 143 L 50 135.5 Q 50.8 133.3 48.5 134 L 46.5 133 L 36.5 138 L 29 133 L 27.5 130 Q 25.3 130.8 26 128.5 L 0 102.5 L 0.5 101 Z " /><path fill="rgb(254,254,254)" stroke="rgb(254,254,254)" stroke-width="1" opacity="1" d="M 92.5 101 Q 96.3 100 95 103 L 90 102.5 L 92.5 101 Z " /><path fill="rgb(254,254,254)" stroke="rgb(254,254,254)" stroke-width="1" opacity="1" d="M 66.5 109 L 68 109.5 L 62.5 112 L 63.5 110 L 66.5 109 Z " /><path fill="rgb(254,254,254)" stroke="rgb(254,254,254)" stroke-width="1" opacity="1" d="M 93.5 114 L 101.5 114 L 108.5 116 L 123 126 Q 121.9 128.7 124.5 128 L 135.5 139 L 137 139 Q 135.9 141.7 138.5 141 L 146 147.5 L 143.5 148 L 122 128.5 Q 122.8 126.3 120.5 127 Q 113.2 114.8 92.5 116 L 80.5 122 L 80 120 L 93.5 114 Z " /><path fill="rgb(254,254,254)" stroke="rgb(254,254,254)" stroke-width="1" opacity="1" d="M 65.5 127 Q 68.5 126.1 67 130.5 L 64 128.5 L 65.5 127 Z " /><path fill="rgb(254,254,254)" stroke="rgb(254,254,254)" stroke-width="1" opacity="1" d="M 76 142 Q 78.7 140.9 78 143.5 L 75.5 147 L 71.5 148 L 71.5 147 L 76 143.5 L 76 142 Z " /><path fill="rgb(254,254,254)" stroke="rgb(254,254,254)" stroke-width="1" opacity="1" d="M 152.5 142 L 153 144.5 L 150.5 148 L 148 147.5 L 151 145.5 L 152.5 142 Z " /><path fill="rgb(255,255,255)" stroke="rgb(255,255,255)" stroke-width="1" opacity="1" d="M 0 0 L 420 0 L 420 148 L 151 147.5 Q 153.6 146.1 153 141.5 L 159 132.5 L 161 124.5 L 161 87.5 Q 158.9 74.6 150.5 68 Q 144.5 63 134.5 62 L 121.5 66 Q 108.5 76.5 92.5 84 L 80 80 L 80 49.5 L 78.5 49 L 67 42 L 67 76.5 L 62 77 L 62 45.5 L 68.5 37 Q 71.7 34.7 78.5 36 L 95.5 47 L 129.5 25 L 136.5 24 L 140.5 25 L 146 30.5 L 148 35.5 L 148 64.5 Q 156.9 70.1 160.5 81 L 161 34.5 L 160 29.5 L 153 17 L 140.5 10 L 129.5 10 L 120.5 14 L 95.5 30 L 82.5 22 L 71.5 21 Q 61 23.5 55 30.5 L 49 43.5 L 49 81 L 37.5 86 L 32.5 86 L 17.5 82 L 6.5 82 L 0.5 85 L 0 0 Z M 73 9 L 74 10 L 75 11 Q 76 8 73 9 Z M 219 28 L 219 35 L 227 35 L 227 28 L 219 28 Z M 316 28 L 316 35 L 324 35 L 324 28 L 316 28 Z M 233 29 L 233 66 L 234 66 L 241 66 L 241 30 L 241 29 L 233 29 Z M 247 29 L 247 66 L 248 66 L 254 66 L 254 30 L 254 29 L 247 29 Z M 179 38 L 179 66 L 180 66 L 186 66 L 186 47 L 188 45 Q 192 44 192 46 L 192 66 L 200 66 L 200 45 L 205 46 L 205 66 L 213 66 L 213 44 L 209 38 Q 200 36 199 40 Q 197 36 189 38 L 186 40 L 186 38 L 179 38 Z M 219 38 L 219 66 L 220 66 L 227 66 L 227 39 L 227 38 L 219 38 Z M 267 38 L 264 40 L 260 46 L 260 60 L 261 62 L 269 67 Q 277 68 282 65 Q 283 60 281 59 L 271 60 L 267 56 L 282 55 L 282 45 L 281 43 Q 278 36 267 38 Z M 288 38 L 288 66 L 295 66 L 295 46 L 302 45 L 303 50 L 303 66 L 310 66 L 310 44 L 308 39 Q 305 37 298 38 L 295 40 L 295 38 L 288 38 Z M 316 38 L 316 66 L 317 66 L 324 66 L 324 39 L 324 38 L 316 38 Z M 330 38 L 330 59 L 332 65 L 337 67 L 344 66 L 346 66 L 353 66 L 353 66 L 353 38 L 345 38 L 345 58 L 342 60 L 338 59 L 338 38 L 330 38 Z M 359 38 L 359 66 L 366 66 L 366 47 Q 367 44 371 45 L 372 47 L 372 66 L 380 66 L 380 45 Q 384 44 385 47 L 385 66 L 393 66 L 393 46 L 392 42 L 389 38 Q 382 37 379 39 Q 377 41 376 38 Q 369 36 368 39 L 359 38 Z M 179 74 L 179 106 L 180 108 L 187 112 L 386 112 L 389 111 L 393 106 L 393 75 L 393 74 L 179 74 Z " /><path fill="rgb(255,255,255)" stroke="rgb(255,255,255)" stroke-width="1" opacity="1" d="M 269.5 45 Q 274.9 43.1 274 46.5 L 275 49 L 267 48.5 L 269.5 45 Z " /><path fill="rgb(255,255,255)" stroke="rgb(255,255,255)" stroke-width="1" opacity="1" d="M 131.5 77 Q 143 76 146 83.5 L 148 88.5 L 148 130.5 L 142.5 126 Q 140.3 126.8 141 124.5 L 129.5 114 L 125 112 L 117.5 103 L 109 97 L 107.5 94 Q 104.9 94.7 106 92 L 131.5 77 Z " /><path fill="rgb(255,255,255)" stroke="rgb(255,255,255)" stroke-width="1" opacity="1" d="M 201 78 L 204 78.5 L 204 89 L 217 89 L 217 78 L 221 78 L 221 103.5 L 217 104 L 217 92 L 204 92 L 204 103.5 L 201 104 L 201 78 Z " /><path fill="rgb(255,255,255)" stroke="rgb(255,255,255)" stroke-width="1" opacity="1" d="M 234.5 78 Q 246.5 75.5 249 82.5 L 250 95.5 L 249 99.5 L 244.5 104 L 237.5 105 L 231 102 Q 228 96.8 229 86.5 L 230 82.5 L 234.5 78 Z M 238 80 L 236 81 L 233 84 L 233 99 Q 235 104 243 102 L 246 98 L 246 85 L 245 83 Q 243 79 238 80 Z " /><path fill="rgb(255,255,255)" stroke="rgb(255,255,255)" stroke-width="1" opacity="1" d="M 258 78 L 271.5 78 L 275 80.5 L 276 88.5 L 271 92 L 277 104 L 273 104 L 273 102.5 L 266.5 93 L 261 93 L 261 103.5 L 258 104 L 258 78 Z M 261 80 L 261 90 L 263 91 L 272 90 Q 274 88 273 83 Q 269 79 261 80 Z " /><path fill="rgb(255,255,255)" stroke="rgb(255,255,255)" stroke-width="1" opacity="1" d="M 285 78 L 289 78.5 L 289 104 L 285 103.5 L 285 78 Z " /><path fill="rgb(255,255,255)" stroke="rgb(255,255,255)" stroke-width="1" opacity="1" d="M 298 78 L 314.5 78 L 315 81.5 L 301 102 L 315.5 102 L 316 104 L 298.5 104 L 297 102.5 L 312 81.5 L 298 81 L 298 78 Z " /><path fill="rgb(255,255,255)" stroke="rgb(255,255,255)" stroke-width="1" opacity="1" d="M 327.5 78 L 337.5 78 L 341 81.5 Q 344.3 86.2 343 95.5 Q 341.8 101.3 337.5 104 L 330.5 105 L 324 102 Q 320.3 97.1 322 85.5 L 327.5 78 Z M 331 80 L 329 81 L 326 84 L 326 99 Q 328 104 336 102 L 339 98 L 339 85 L 338 83 Q 336 79 331 80 Z " /><path fill="rgb(255,255,255)" stroke="rgb(255,255,255)" stroke-width="1" opacity="1" d="M 351 78 Q 355.7 77 357 80.5 L 366.5 98 L 367 78 L 371 78.5 L 371 104 L 366 104 L 366 102.5 L 354.5 83 L 354 104 L 351 103.5 L 351 78 Z " /><path fill="rgb(255,255,255)" stroke="rgb(255,255,255)" stroke-width="1" opacity="1" d="M 66.5 91 L 67 107.5 L 68 108.5 L 62.5 111 L 62 93 L 66.5 91 Z " /><path fill="rgb(255,255,255)" stroke="rgb(255,255,255)" stroke-width="1" opacity="1" d="M 48.5 99 L 49 111.5 L 37 100.5 L 40.5 100 Q 41.7 102.2 46.5 101 L 48.5 99 Z " /><path fill="rgb(255,255,255)" stroke="rgb(255,255,255)" stroke-width="1" opacity="1" d="M 0.5 103 L 26 128.5 L 26 130 L 29 131.5 Q 28.3 133.8 30.5 133 L 36.5 138 L 47.5 133 L 50 134 L 57.5 143 Q 59.8 142.3 59 144.5 L 61.5 148 L 0 148 L 0.5 103 Z " /><path fill="rgb(255,255,255)" stroke="rgb(255,255,255)" stroke-width="1" opacity="1" d="M 92.5 116 Q 103.4 114.6 109.5 118 L 122 127 L 123.5 130 L 143 147.5 L 74.5 148 L 74.5 147 L 77 145.5 L 78 142.5 Q 75.8 141.3 78.5 140 L 80 139.5 L 80 122.5 L 92.5 116 Z " /><path fill="rgb(83,93,199)" stroke="rgb(83,93,199)" stroke-width="1" opacity="1" d="M 131.5 10 Q 148.6 9.9 155 20.5 L 160 31.5 L 160 77.5 L 159 77.5 Q 156.4 70.1 150.5 66 L 148 64.5 L 148 34.5 L 142.5 26 Q 138.8 22.7 130.5 24 L 96.5 46 L 94.5 46 L 81.5 37 Q 78.8 34.2 72.5 35 Q 66.8 36.3 64 40.5 L 61 47.5 L 61 115 L 49.5 122 L 49 45.5 Q 51.6 32.6 60.5 26 Q 66.8 20.3 80.5 22 Q 89.5 25 95.5 31 L 124.5 12 L 131.5 10 Z " /><path fill="rgb(83,93,199)" stroke="rgb(83,93,199)" stroke-width="1" opacity="1" d="M 233.5 29 L 234 65.5 L 233 65.5 L 233.5 29 Z " /><path fill="rgb(83,93,199)" stroke="rgb(83,93,199)" stroke-width="1" opacity="1" d="M 240.5 29 L 241 65.5 L 240 65.5 L 240.5 29 Z " /><path fill="rgb(83,93,199)" stroke="rgb(83,93,199)" stroke-width="1" opacity="1" d="M 219.5 39 L 220 65.5 L 219 65.5 L 219.5 39 Z " /><path fill="rgb(83,93,199)" stroke="rgb(83,93,199)" stroke-width="1" opacity="1" d="M 226.5 39 L 227 65.5 L 226 65.5 L 226.5 39 Z " /><path fill="rgb(83,93,199)" stroke="rgb(83,93,199)" stroke-width="1" opacity="1" d="M 316.5 39 L 317 65.5 L 316 65.5 L 316.5 39 Z " /><path fill="rgb(83,93,199)" stroke="rgb(83,93,199)" stroke-width="1" opacity="1" d="M 330.5 39 L 331 56.5 L 330 56.5 L 330.5 39 Z " /><path fill="rgb(83,93,199)" stroke="rgb(83,93,199)" stroke-width="1" opacity="1" d="M 389.5 39 L 390.5 41 L 389.5 39 Z " /><path fill="rgb(83,93,199)" stroke="rgb(83,93,199)" stroke-width="1" opacity="1" d="M 67.5 42 L 79 49.5 L 79 92.5 L 80.5 93 L 122.5 66 L 130.5 63 L 138.5 63 Q 149.6 65.4 155 73.5 L 160 84.5 L 160 127.5 Q 157.1 139.1 148.5 145 L 148 87.5 L 142.5 79 Q 139.5 76 133.5 76 L 121.5 82 L 79 109.5 L 79 139.5 L 77.5 140 L 67.5 147 L 67 111.5 L 68 107.5 L 67 106.5 L 67.5 42 Z " /><path fill="rgb(83,93,199)" stroke="rgb(83,93,199)" stroke-width="1" opacity="1" d="M 199.5 45 L 200 65.5 L 199 65.5 L 199.5 45 Z " /><path fill="rgb(83,93,199)" stroke="rgb(83,93,199)" stroke-width="1" opacity="1" d="M 192.5 46 L 193 65.5 L 192 65.5 L 192.5 46 Z " /><path fill="rgb(83,93,199)" stroke="rgb(83,93,199)" stroke-width="1" opacity="1" d="M 267.5 54 L 282 54.5 L 267.5 55 L 267.5 54 Z " /><path fill="rgb(83,93,199)" stroke="rgb(83,93,199)" stroke-width="1" opacity="1" d="M 270.5 66 L 274 66.5 L 270.5 67 L 270.5 66 Z " /><path fill="rgb(83,93,199)" stroke="rgb(83,93,199)" stroke-width="1" opacity="1" d="M 337.5 66 L 340 66.5 L 337.5 67 L 337.5 66 Z " /><path fill="rgb(83,93,199)" stroke="rgb(83,93,199)" stroke-width="1" opacity="1" d="M 392.5 74 L 393 103.5 L 392 103.5 L 392.5 74 Z " /><path fill="rgb(83,93,199)" stroke="rgb(83,93,199)" stroke-width="1" opacity="1" d="M 350.5 78 L 351 103.5 L 350 103.5 L 350.5 78 Z " /><path fill="rgb(83,93,199)" stroke="rgb(83,93,199)" stroke-width="1" opacity="1" d="M 354.5 84 Q 357.3 85.2 355 86.5 L 354.5 104 L 354.5 84 Z " /><path fill="rgb(83,93,199)" stroke="rgb(83,93,199)" stroke-width="1" opacity="1" d="M 205.5 88 L 217 88.5 L 205.5 89 L 205.5 88 Z " /><path fill="rgb(83,93,199)" stroke="rgb(83,93,199)" stroke-width="1" opacity="1" d="M 327.5 99 L 328.5 101 L 327.5 99 Z " /><path fill="rgb(6,61,174)" stroke="rgb(6,61,174)" stroke-width="1" opacity="1" d="M 220.5 28 Q 225.8 26.8 227 29.5 Q 228 34 225.5 35 Q 220.3 36.3 219 33.5 Q 218 29 220.5 28 Z " /><path fill="rgb(6,61,174)" stroke="rgb(6,61,174)" stroke-width="1" opacity="1" d="M 317.5 28 Q 322.8 26.8 324 29.5 Q 325 34 322.5 35 Q 317.3 36.3 316 33.5 Q 315 29 317.5 28 Z " /><path fill="rgb(6,61,174)" stroke="rgb(6,61,174)" stroke-width="1" opacity="1" d="M 234 29 L 239.5 29 L 240 29.5 L 240 66 L 234.5 66 L 234 65.5 L 234 29 Z " /><path fill="rgb(6,61,174)" stroke="rgb(6,61,174)" stroke-width="1" opacity="1" d="M 247 29 L 253.5 29 L 254 29.5 L 254 66 L 247.5 66 L 247 65.5 L 247 29 Z " /><path fill="rgb(6,61,174)" stroke="rgb(6,61,174)" stroke-width="1" opacity="1" d="M 180.5 38 Q 185.8 37.2 187.5 40 Q 189.2 37.2 194.5 38 L 199.5 40 Q 201.5 37 207.5 38 L 211 40.5 L 213 45.5 L 213 66 L 206 66 L 206 46.5 L 202.5 44 L 199 45 L 199 65.5 L 198.5 66 L 193 66 L 193 46.5 L 190.5 44 L 186 45 L 186 66 L 179 66 L 179 39.5 L 180.5 38 Z " /><path fill="rgb(6,61,174)" stroke="rgb(6,61,174)" stroke-width="1" opacity="1" d="M 220 38 L 225.5 38 L 226 38.5 L 226 66 L 220.5 66 L 220 65.5 L 220 38 Z " /><path fill="rgb(6,61,174)" stroke="rgb(6,61,174)" stroke-width="1" opacity="1" d="M 268.5 38 Q 278.3 37.3 281 43.5 L 282 54 L 267.5 54 L 267 57.5 L 269.5 60 L 281 60 L 281 65 L 279.5 65 L 278.5 66 L 266.5 66 L 263 64 Q 258.5 59.3 260 47.5 Q 261.3 41.8 265.5 39 L 268.5 38 Z M 270 44 Q 266 45 267 50 L 275 50 L 275 47 Q 274 43 270 44 Z " /><path fill="rgb(6,61,174)" stroke="rgb(6,61,174)" stroke-width="1" opacity="1" d="M 289.5 38 Q 294.5 37 295.5 40 Q 298.2 37.2 304.5 38 L 308 40.5 L 310 45.5 L 310 66 L 303 66 L 303 46.5 Q 302.5 43.5 298.5 44 L 295 46.5 L 295 66 L 288 66 L 288 39.5 L 289.5 38 Z " /><path fill="rgb(6,61,174)" stroke="rgb(6,61,174)" stroke-width="1" opacity="1" d="M 317 38 Q 322.4 36.5 324 39.5 L 324 65.5 L 323.5 66 L 317 66 L 317 38 Z " /><path fill="rgb(6,61,174)" stroke="rgb(6,61,174)" stroke-width="1" opacity="1" d="M 331 38 Q 336.4 36.5 338 39.5 L 338 58.5 L 339.5 60 Q 344 61 345 58.5 L 345 39.5 L 346.5 38 Q 351.9 37.4 352 38.5 L 352 66 L 346.5 66 L 346 64.5 L 344.5 65 Q 341.3 67.3 334.5 66 L 331 61.5 L 331 38 Z " /><path fill="rgb(6,61,174)" stroke="rgb(6,61,174)" stroke-width="1" opacity="1" d="M 359 38 L 364.5 38 L 365 40 L 366.5 40 Q 368.8 37.3 374.5 38 L 378.5 40 Q 381.2 37.2 387.5 38 L 392 43.5 L 392 66 L 385 66 L 385 45.5 L 382.5 44 L 379 45 L 379 66 L 372 66 L 372 45.5 L 370.5 45 L 368.5 45 L 366 45.5 L 366 66 L 359 66 L 359 38 Z " /><path fill="rgb(6,61,174)" stroke="rgb(6,61,174)" stroke-width="1" opacity="1" d="M 180 74 L 391.5 74 L 392 74.5 L 392 106.5 L 389.5 110 L 387.5 111 L 184.5 111 L 182 110 L 180 106.5 L 180 74 Z M 201 77 L 201 105 L 205 105 L 205 92 L 217 92 L 217 105 L 221 105 L 221 78 L 219 77 L 217 79 L 217 88 L 205 88 L 205 79 L 201 77 Z M 237 77 L 234 78 L 229 84 L 229 99 L 230 101 L 236 105 Q 242 106 246 104 L 250 99 Q 252 88 249 82 Q 246 76 237 77 Z M 258 77 L 258 105 L 262 105 L 262 94 L 267 94 L 273 104 L 273 105 L 278 105 L 271 94 L 273 93 L 277 88 Q 278 81 275 79 Q 269 76 258 77 Z M 285 77 L 285 105 L 289 105 L 289 78 L 285 77 Z M 299 77 L 297 80 L 299 81 L 311 82 L 297 101 Q 296 104 299 105 L 316 105 L 316 101 L 302 101 L 316 82 L 316 80 L 314 77 L 299 77 Z M 330 77 L 327 78 L 322 84 L 322 99 L 323 101 L 329 105 Q 335 106 339 104 L 343 98 L 343 85 L 341 81 Q 338 76 330 77 Z M 352 77 L 350 79 L 350 104 L 354 105 L 355 104 L 356 86 L 365 104 Q 366 106 371 105 L 371 78 L 367 77 L 367 97 L 357 80 Q 356 76 352 77 Z " /><path fill="rgb(6,61,174)" stroke="rgb(6,61,174)" stroke-width="1" opacity="1" d="M 236.5 81 Q 243.5 79.5 245 83.5 L 246 85.5 L 246 96.5 L 242.5 101 Q 235.5 102.5 234 98.5 L 233 96.5 L 233 85.5 L 236.5 81 Z " /><path fill="rgb(6,61,174)" stroke="rgb(6,61,174)" stroke-width="1" opacity="1" d="M 262 81 L 270.5 81 L 272 82.5 L 273 85.5 L 272 89 Q 268.9 91 262 90 L 262 81 Z " /><path fill="rgb(6,61,174)" stroke="rgb(6,61,174)" stroke-width="1" opacity="1" d="M 329.5 81 Q 336.5 79.5 338 83.5 L 339 95.5 L 335.5 101 Q 328.5 102.5 327 98.5 L 326 96.5 L 326 85.5 L 329.5 81 Z " /><path fill="rgb(230,230,234)" stroke="rgb(230,230,234)" stroke-width="1" opacity="1" d="M 73.5 21 L 77 21.5 L 73.5 22 L 73.5 21 Z " /><path fill="rgb(230,230,234)" stroke="rgb(230,230,234)" stroke-width="1" opacity="1" d="M 365.5 38 L 366.5 40 L 365.5 38 Z " /><path fill="rgb(230,230,234)" stroke="rgb(230,230,234)" stroke-width="1" opacity="1" d="M 61.5 48 L 62 78.5 L 61 78.5 L 61.5 48 Z " /><path fill="rgb(230,230,234)" stroke="rgb(230,230,234)" stroke-width="1" opacity="1" d="M 205.5 48 L 206 65.5 L 205 65.5 L 205.5 48 Z " /><path fill="rgb(230,230,234)" stroke="rgb(230,230,234)" stroke-width="1" opacity="1" d="M 267.5 49 L 275 49.5 L 267.5 50 L 267.5 49 Z " /><path fill="rgb(230,230,234)" stroke="rgb(230,230,234)" stroke-width="1" opacity="1" d="M 79.5 64 L 80 67.5 L 79 67.5 L 79.5 64 Z " /><path fill="rgb(230,230,234)" stroke="rgb(230,230,234)" stroke-width="1" opacity="1" d="M 79.5 69 L 80 78.5 L 79 78.5 L 79.5 69 Z " /><path fill="rgb(230,230,234)" stroke="rgb(230,230,234)" stroke-width="1" opacity="1" d="M 202.5 77 L 205 78.5 L 204.5 88 L 204 78 L 202.5 77 Z " /><path fill="rgb(230,230,234)" stroke="rgb(230,230,234)" stroke-width="1" opacity="1" d="M 298.5 77 L 313 77.5 L 298.5 78 L 298.5 77 Z " /><path fill="rgb(230,230,234)" stroke="rgb(230,230,234)" stroke-width="1" opacity="1" d="M 352.5 77 L 355 77.5 L 352.5 78 L 352.5 77 Z " /><path fill="rgb(230,230,234)" stroke="rgb(230,230,234)" stroke-width="1" opacity="1" d="M 246.5 79 L 247.5 81 L 246.5 79 Z " /><path fill="rgb(230,230,234)" stroke="rgb(230,230,234)" stroke-width="1" opacity="1" d="M 62 80 L 67 80 L 67 82 L 62 82 L 62 80 Z " /><path fill="rgb(230,230,234)" stroke="rgb(230,230,234)" stroke-width="1" opacity="1" d="M 80.5 83 L 90 86.5 L 87.5 87 L 81.5 85 L 80.5 83 Z " /><path fill="rgb(230,230,234)" stroke="rgb(230,230,234)" stroke-width="1" opacity="1" d="M 47.5 84 Q 50.1 83.3 49 86 L 40.5 90 L 34.5 91 L 19.5 87 L 7.5 87 L 0.5 91 L 0 88 L 4.5 86 L 15.5 85 L 37.5 89 L 47.5 84 Z " /><path fill="rgb(230,230,234)" stroke="rgb(230,230,234)" stroke-width="1" opacity="1" d="M 64.5 87 L 67 87.5 L 62.5 90 L 62 88 L 64.5 87 Z " /><path fill="rgb(230,230,234)" stroke="rgb(230,230,234)" stroke-width="1" opacity="1" d="M 80 88 L 85 89.5 Q 83.8 92.3 82.5 90 Q 78.8 91 80 88 Z " /><path fill="rgb(230,230,234)" stroke="rgb(230,230,234)" stroke-width="1" opacity="1" d="M 17.5 91 L 27.5 92 L 40.5 96 L 45.5 96 L 48.5 94 L 49 95.5 Q 47.3 98.8 41.5 98 L 32.5 95 L 18.5 93 L 13 95.5 L 13 97.5 L 43 127.5 L 44 130.5 Q 42.4 134.9 35.5 134 L 0 98.5 L 0 96.5 L 2 97.5 L 35.5 132 Q 41 133 42 129.5 L 20 107.5 L 20 106 L 18 106 Q 19.1 103.3 16.5 104 Q 12.3 101.3 11 95.5 L 12 93 L 17.5 91 Z " /><path fill="rgb(230,230,234)" stroke="rgb(230,230,234)" stroke-width="1" opacity="1" d="M 61.5 91 L 62 103.5 L 61 103.5 L 61.5 91 Z " /><path fill="rgb(230,230,234)" stroke="rgb(230,230,234)" stroke-width="1" opacity="1" d="M 79.5 91 L 80.5 93 Q 77.7 93.7 79.5 91 Z " /><path fill="rgb(230,230,234)" stroke="rgb(230,230,234)" stroke-width="1" opacity="1" d="M 204.5 92 L 205 103.5 L 204 103.5 L 204.5 92 Z " /><path fill="rgb(230,230,234)" stroke="rgb(230,230,234)" stroke-width="1" opacity="1" d="M 264.5 93 L 267 93.5 L 264.5 94 L 264.5 93 Z " /><path fill="rgb(230,230,234)" stroke="rgb(230,230,234)" stroke-width="1" opacity="1" d="M 102.5 95 L 105.5 96 L 148 135.5 L 147.5 137 L 115 108.5 L 109.5 102 L 106.5 100 L 102.5 95 Z " /><path fill="rgb(230,230,234)" stroke="rgb(230,230,234)" stroke-width="1" opacity="1" d="M 17 96 L 22.5 96 L 31.5 99 L 49 116.5 L 48.5 118 L 31.5 101 L 21 98 L 22 102 L 28 106.5 Q 27.3 109.1 30 108 L 30 110 L 31.5 110 L 34 114 L 40 118.5 Q 39.3 120.8 41.5 120 L 67 146.5 L 65.5 146 L 50 131.5 L 46.5 127 L 18 99.5 L 17 96 Z " /><path fill="rgb(230,230,234)" stroke="rgb(230,230,234)" stroke-width="1" opacity="1" d="M 95.5 99 L 102 103.5 L 103 105.5 Q 101.5 108.5 95.5 107 L 94.5 106 L 85.5 106 L 84 106.5 L 85.5 105 L 99 105 L 95.5 99 Z " /><path fill="rgb(230,230,234)" stroke="rgb(230,230,234)" stroke-width="1" opacity="1" d="M 299.5 104 L 315 104.5 L 299.5 105 L 299.5 104 Z " /><path fill="rgb(230,230,234)" stroke="rgb(230,230,234)" stroke-width="1" opacity="1" d="M 61.5 105 L 62 112.5 L 61 112.5 L 61.5 105 Z " /><path fill="rgb(230,230,234)" stroke="rgb(230,230,234)" stroke-width="1" opacity="1" d="M 92.5 111 L 102.5 111 L 113.5 115 L 144.5 143 L 148 144 Q 149.1 146.7 146.5 146 L 113.5 117 Q 106.2 111.3 91.5 113 L 80 119.5 L 79.5 125 L 79 119.5 L 80 117 L 92.5 111 Z " /><path fill="rgb(230,230,234)" stroke="rgb(230,230,234)" stroke-width="1" opacity="1" d="M 66.5 112 L 67 113.5 L 53.5 120 L 53.5 119 L 66.5 112 Z " /><path fill="rgb(230,230,234)" stroke="rgb(230,230,234)" stroke-width="1" opacity="1" d="M 66.5 123 L 67 124.5 L 62 128.5 L 67 135.5 L 61 130.5 L 60 127.5 L 66.5 123 Z " /><path fill="rgb(230,230,234)" stroke="rgb(230,230,234)" stroke-width="1" opacity="1" d="M 79.5 127 L 80 129.5 L 79 129.5 L 79.5 127 Z " /><path fill="rgb(230,230,234)" stroke="rgb(230,230,234)" stroke-width="1" opacity="1" d="M 74.5 142 L 74 143.5 Q 74.8 145.8 72.5 145 L 68.5 147 L 68.5 146 L 74.5 142 Z " /><path fill="rgb(203,205,213)" stroke="rgb(203,205,213)" stroke-width="1" opacity="1" d="M 142.5 26 L 144.5 29 L 142.5 26 Z " /><path fill="rgb(203,205,213)" stroke="rgb(203,205,213)" stroke-width="1" opacity="1" d="M 160.5 36 L 161 79.5 L 160 79.5 L 160.5 36 Z " /><path fill="rgb(203,205,213)" stroke="rgb(203,205,213)" stroke-width="1" opacity="1" d="M 67.5 37 L 66.5 39 L 67.5 37 Z " /><path fill="rgb(203,205,213)" stroke="rgb(203,205,213)" stroke-width="1" opacity="1" d="M 352.5 39 L 353 65.5 L 352 65.5 L 352.5 39 Z " /><path fill="rgb(203,205,213)" stroke="rgb(203,205,213)" stroke-width="1" opacity="1" d="M 392.5 46 L 393 65.5 L 392 65.5 L 392.5 46 Z " /><path fill="rgb(203,205,213)" stroke="rgb(203,205,213)" stroke-width="1" opacity="1" d="M 79.5 50 L 80 57.5 L 79 57.5 L 79.5 50 Z " /><path fill="rgb(203,205,213)" stroke="rgb(203,205,213)" stroke-width="1" opacity="1" d="M 179.5 74 L 180 104.5 L 179 104.5 L 179.5 74 Z " /><path fill="rgb(203,205,213)" stroke="rgb(203,205,213)" stroke-width="1" opacity="1" d="M 133.5 76 L 136 76.5 L 133.5 77 L 133.5 76 Z " /><path fill="rgb(203,205,213)" stroke="rgb(203,205,213)" stroke-width="1" opacity="1" d="M 61.5 79 L 62 82 Q 69.5 79.5 67 87 L 62 88 L 61.5 91 L 61.5 79 Z " /><path fill="rgb(203,205,213)" stroke="rgb(203,205,213)" stroke-width="1" opacity="1" d="M 79.5 79 Q 78.9 83.6 81.5 85 L 89 87.5 L 85.5 90 L 80 88 L 79.5 91 L 79.5 79 Z " /><path fill="rgb(203,205,213)" stroke="rgb(203,205,213)" stroke-width="1" opacity="1" d="M 339.5 79 L 340.5 81 L 339.5 79 Z " /><path fill="rgb(203,205,213)" stroke="rgb(203,205,213)" stroke-width="1" opacity="1" d="M 238.5 80 L 241 80.5 L 238.5 81 L 238.5 80 Z " /><path fill="rgb(203,205,213)" stroke="rgb(203,205,213)" stroke-width="1" opacity="1" d="M 262.5 80 L 268 80.5 L 262.5 81 L 262.5 80 Z " /><path fill="rgb(203,205,213)" stroke="rgb(203,205,213)" stroke-width="1" opacity="1" d="M 331.5 80 L 334 80.5 L 331.5 81 L 331.5 80 Z " /><path fill="rgb(203,205,213)" stroke="rgb(203,205,213)" stroke-width="1" opacity="1" d="M 47.5 86 L 49 86.5 L 49 93.5 Q 47 97 40.5 96 L 27.5 92 L 17.5 91 L 12 93 L 11 96.5 L 16.5 104 L 18 104 L 18 106 Q 20.7 104.9 20 107.5 L 42 129.5 L 39.5 132 L 35.5 132 L 2 98.5 Q -0.8 96.8 0 91.5 Q 5.3 84.8 19.5 87 L 37.5 91 L 47.5 86 Z " /><path fill="rgb(203,205,213)" stroke="rgb(203,205,213)" stroke-width="1" opacity="1" d="M 160.5 89 L 161 122.5 L 160 122.5 L 160.5 89 Z " /><path fill="rgb(203,205,213)" stroke="rgb(203,205,213)" stroke-width="1" opacity="1" d="M 102.5 94 L 102 95.5 L 106.5 100 L 109.5 102 L 120.5 114 Q 136.1 123.9 148 137.5 Q 149.5 144.5 146.5 144 L 113.5 115 L 102.5 111 L 92.5 111 L 80 117 L 79.5 119 L 79 109.5 L 83.5 106 L 85.5 106 L 101.5 107 Q 104.3 105.8 102 104.5 L 98.5 100 L 96 98.5 L 102.5 94 Z " /><path fill="rgb(203,205,213)" stroke="rgb(203,205,213)" stroke-width="1" opacity="1" d="M 21 98 L 31.5 101 L 49 118.5 L 49.5 122 L 51.5 120 L 57 118.5 L 56.5 117 L 58.5 118 L 59.5 115 L 63.5 116 L 66.5 114 L 67 122.5 L 60 127.5 Q 61.5 134 67 136.5 L 67 144.5 L 41.5 120 Q 39.3 120.8 40 118.5 L 34 114 L 31.5 110 L 30 110 L 30 108 Q 27.3 109.1 28 106.5 L 22 102 L 21 98 Z " /><path fill="rgb(203,205,213)" stroke="rgb(203,205,213)" stroke-width="1" opacity="1" d="M 244.5 99 L 243.5 101 L 244.5 99 Z " /><path fill="rgb(203,205,213)" stroke="rgb(203,205,213)" stroke-width="1" opacity="1" d="M 337.5 99 L 336.5 101 L 337.5 99 Z " /><path fill="rgb(203,205,213)" stroke="rgb(203,205,213)" stroke-width="1" opacity="1" d="M 79.5 130 L 80 138.5 L 79 138.5 L 79.5 130 Z " /><path fill="rgb(203,205,213)" stroke="rgb(203,205,213)" stroke-width="1" opacity="1" d="M 152.5 141 L 150.5 144 L 152.5 141 Z " /><path fill="rgb(245,246,248)" stroke="rgb(245,246,248)" stroke-width="1" opacity="1" d="M 379.5 45 L 380 65.5 L 379 65.5 L 379.5 45 Z " /><path fill="rgb(245,246,248)" stroke="rgb(245,246,248)" stroke-width="1" opacity="1" d="M 79.5 59 L 80 63.5 L 79 63.5 L 79.5 59 Z " /><path fill="rgb(245,246,248)" stroke="rgb(245,246,248)" stroke-width="1" opacity="1" d="M 281.5 60 L 282 64.5 L 280 65.5 L 281.5 60 Z " /><path fill="rgb(245,246,248)" stroke="rgb(245,246,248)" stroke-width="1" opacity="1" d="M 152.5 68 L 153.5 70 L 152.5 68 Z " /><path fill="rgb(245,246,248)" stroke="rgb(245,246,248)" stroke-width="1" opacity="1" d="M 158.5 76 L 157.5 78 L 158.5 76 Z " /><path fill="rgb(245,246,248)" stroke="rgb(245,246,248)" stroke-width="1" opacity="1" d="M 62.5 79 L 67 79.5 L 62.5 80 L 62.5 79 Z " /><path fill="rgb(245,246,248)" stroke="rgb(245,246,248)" stroke-width="1" opacity="1" d="M 325.5 79 L 324.5 81 L 325.5 79 Z " /><path fill="rgb(245,246,248)" stroke="rgb(245,246,248)" stroke-width="1" opacity="1" d="M 143.5 80 L 144.5 82 L 143.5 80 Z " /><path fill="rgb(245,246,248)" stroke="rgb(245,246,248)" stroke-width="1" opacity="1" d="M 80.5 81 L 92 85.5 L 88.5 86 L 80 83 L 80.5 81 Z " /><path fill="rgb(245,246,248)" stroke="rgb(245,246,248)" stroke-width="1" opacity="1" d="M 261.5 81 L 262 89.5 L 261 89.5 L 261.5 81 Z " /><path fill="rgb(245,246,248)" stroke="rgb(245,246,248)" stroke-width="1" opacity="1" d="M 48.5 82 L 49 84 L 40.5 88 L 33.5 89 L 23.5 86 L 10.5 85 L 0.5 88 L 1.5 86 Q 8 82 20.5 84 L 35.5 88 L 48.5 82 Z " /><path fill="rgb(245,246,248)" stroke="rgb(245,246,248)" stroke-width="1" opacity="1" d="M 66.5 88 L 67 90 L 62.5 91 L 63.5 89 L 66.5 88 Z " /><path fill="rgb(245,246,248)" stroke="rgb(245,246,248)" stroke-width="1" opacity="1" d="M 80.5 90 L 83 90.5 Q 80.9 93.8 80.5 90 Z " /><path fill="rgb(245,246,248)" stroke="rgb(245,246,248)" stroke-width="1" opacity="1" d="M 18.5 93 L 45.5 98 L 48.5 96 L 49 98 Q 46.3 99.9 39.5 99 Q 38.3 96.8 33.5 98 L 49 114.5 L 48.5 116 L 31.5 99 L 22.5 96 L 17 96 L 18 99.5 L 45.5 127 L 50 130.5 L 64.5 146 L 69.5 147 L 74 145 L 76.5 141 L 76 142.5 L 72.5 147 L 65.5 148 L 61 144.5 Q 61.8 142.3 59.5 143 L 52 134 L 49 132.5 L 47.5 130 Q 44.2 128.9 45 131.5 L 38.5 136 L 35.5 136 L 0 99.5 L 35.5 134 Q 42.4 134.9 44 130.5 L 43 127.5 L 13 97.5 L 13 95.5 L 18.5 93 Z " /><path fill="rgb(245,246,248)" stroke="rgb(245,246,248)" stroke-width="1" opacity="1" d="M 104.5 93 L 106 96 L 122 109.5 L 125.5 114 L 139 124 Q 137.9 126.7 140.5 126 L 148 134.5 L 138.5 126 L 124.5 115 L 103 94.5 L 104.5 93 Z " /><path fill="rgb(245,246,248)" stroke="rgb(245,246,248)" stroke-width="1" opacity="1" d="M 261.5 94 L 262 103.5 L 259.5 105 L 259.5 104 L 261 103.5 L 261.5 94 Z " /><path fill="rgb(245,246,248)" stroke="rgb(245,246,248)" stroke-width="1" opacity="1" d="M 93.5 100 Q 98.5 99.5 99 103.5 L 98.5 105 L 87.5 105 L 87.5 104 L 95 103 Q 96.1 100.3 93.5 101 L 93.5 100 Z " /><path fill="rgb(245,246,248)" stroke="rgb(245,246,248)" stroke-width="1" opacity="1" d="M 301.5 100 L 302.5 101 L 315 101.5 L 301 102 L 301.5 100 Z " /><path fill="rgb(245,246,248)" stroke="rgb(245,246,248)" stroke-width="1" opacity="1" d="M 247.5 101 L 246.5 103 L 247.5 101 Z " /><path fill="rgb(245,246,248)" stroke="rgb(245,246,248)" stroke-width="1" opacity="1" d="M 67.5 110 L 65.5 113 L 62 114 Q 60.8 111 64.5 112 L 67.5 110 Z " /><path fill="rgb(245,246,248)" stroke="rgb(245,246,248)" stroke-width="1" opacity="1" d="M 187.5 111 L 386 111.5 L 187.5 112 L 187.5 111 Z " /><path fill="rgb(245,246,248)" stroke="rgb(245,246,248)" stroke-width="1" opacity="1" d="M 91.5 113 Q 106.2 111.3 113.5 117 L 144.5 145 L 147.5 146 L 150.5 144 L 151 145.5 L 146.5 148 L 137 141 Q 138.1 138.3 135.5 139 L 124.5 128 L 123 128 Q 124.1 125.3 121.5 126 Q 113.8 113.7 93.5 114 L 80.5 120 L 81.5 118 L 91.5 113 Z " /><path fill="rgb(245,246,248)" stroke="rgb(245,246,248)" stroke-width="1" opacity="1" d="M 66.5 125 L 67 127 L 64 128.5 Q 67.5 129 67 133.5 L 63 130.5 L 62 128.5 L 66.5 125 Z " /></svg>